<?xml version="1.0" encoding="UTF-8" standalone="no"?>
<svg
   xmlns:dc="http://purl.org/dc/elements/1.1/"
   xmlns:cc="http://creativecommons.org/ns#"
   xmlns:rdf="http://www.w3.org/1999/02/22-rdf-syntax-ns#"
   xmlns:svg="http://www.w3.org/2000/svg"
   xmlns="http://www.w3.org/2000/svg"
   version="1.1"
   id="svg5212"
   viewBox="0 0 64.826081 49.134801"
   height="13.866933mm"
   width="18.295361mm">
  <defs
     id="defs5214" />
  <metadata
     id="metadata5217">
    <rdf:RDF>
      <cc:Work
         rdf:about="">
        <dc:format>image/svg+xml</dc:format>
        <dc:type
           rdf:resource="http://purl.org/dc/dcmitype/StillImage" />
        <dc:title></dc:title>
      </cc:Work>
    </rdf:RDF>
  </metadata>
  <g
     transform="translate(-327.58696,-1027.7948)"
     id="layer1">
    <g
       transform="matrix(1.25,0,0,-1.25,340.38446,1056.3321)"
       id="g186">
      <path
         id="path188"
         style="fill:#161e5c;fill-opacity:1;fill-rule:nonzero;stroke:none"
         d="m 0,0 c -3.439,0 -6.238,-2.799 -6.238,-6.239 0,-3.44 2.799,-6.239 6.238,-6.239 3.439,0 6.238,2.799 6.238,6.239 C 6.238,-2.799 3.439,0 0,0 m 0,-16.478 c -5.646,0 -10.238,4.593 -10.238,10.239 C -10.238,-0.594 -5.646,4 0,4 5.646,4 10.238,-0.594 10.238,-6.239 10.238,-11.885 5.646,-16.478 0,-16.478" />
    </g>
    <path
       id="path190"
       style="fill:#161e5c;fill-opacity:1;fill-rule:nonzero;stroke:none"
       d="m 353.18266,1045.4486 12.65375,0 0,-12.6538 -12.65375,0 0,12.6538 z m 15.15375,5 -17.65375,0 c -1.38125,0 -2.5,-1.12 -2.5,-2.5 l 0,-17.6538 c 0,-1.3812 1.11875,-2.5 2.5,-2.5 l 17.65375,0 c 1.38,0 2.5,1.1188 2.5,2.5 l 0,17.6538 c 0,1.38 -1.12,2.5 -2.5,2.5" />
    <g
       transform="matrix(1.25,0,0,-1.25,376.12416,1067.2342)"
       id="g192">
      <path
         id="path194"
         style="fill:#161e5c;fill-opacity:1;fill-rule:nonzero;stroke:none"
         d="M 0,0 8.441,-2.222 6.664,6.665 0,0 Z m 11.031,-6.971 c -0.17,0 -0.341,0.022 -0.509,0.066 l -14.908,3.923 c -0.692,0.182 -1.235,0.721 -1.422,1.412 -0.186,0.691 0.01,1.43 0.517,1.936 l 11.77,11.77 c 0.521,0.522 1.287,0.714 1.993,0.5 0.706,-0.214 1.237,-0.799 1.382,-1.522 l 3.138,-15.692 c 0.136,-0.677 -0.088,-1.375 -0.59,-1.849 -0.376,-0.353 -0.868,-0.544 -1.371,-0.544" />
    </g>
  </g>
</svg>
