<?xml version="1.0" encoding="UTF-8" standalone="no"?>
<svg
   xmlns:dc="http://purl.org/dc/elements/1.1/"
   xmlns:cc="http://creativecommons.org/ns#"
   xmlns:rdf="http://www.w3.org/1999/02/22-rdf-syntax-ns#"
   xmlns:svg="http://www.w3.org/2000/svg"
   xmlns="http://www.w3.org/2000/svg"
   version="1.1"
   id="svg5212"
   viewBox="0 0 43.63079 56.108386"
   height="15.835033mm"
   width="12.313579mm">
  <defs
     id="defs5214" />
  <metadata
     id="metadata5217">
    <rdf:RDF>
      <cc:Work
         rdf:about="">
        <dc:format>image/svg+xml</dc:format>
        <dc:type
           rdf:resource="http://purl.org/dc/dcmitype/StillImage" />
        <dc:title></dc:title>
      </cc:Work>
    </rdf:RDF>
  </metadata>
  <g
     transform="translate(624.67254,-487.16515)"
     id="layer1">
    <g
       transform="matrix(1.25,0,0,-1.25,-614.9485,534.14729)"
       id="g212">
      <path
         id="path214"
         style="fill:#161e5c;fill-opacity:1;fill-rule:nonzero;stroke:none"
         d="m 0,0 c 1.106,-0.699 9.121,-5.476 16.56,-2.068 0.781,0.357 5.268,3.565 6.333,9.153 0.931,4.892 -0.962,10.243 -5.632,15.943 l -1.405,-6.089 c -0.205,-0.886 -0.982,-1.524 -1.892,-1.549 -0.019,-0.001 -0.038,-0.001 -0.058,-0.001 -0.885,0 -1.67,0.585 -1.919,1.44 L 7.834,31.068 C 6.242,28.724 3.809,24.979 0.457,19.393 -4.271,11.514 -5.862,5.8 0,0 m 10.778,-7.301 c -7.09,-10e-4 -12.846,3.864 -13.166,4.083 -0.093,0.065 -0.181,0.136 -0.262,0.215 -9.477,9.198 -3.522,19.122 -0.323,24.454 6.816,11.359 9.884,15.227 10.011,15.385 0.466,0.583 1.217,0.854 1.95,0.713 0.732,-0.145 1.323,-0.686 1.532,-1.403 l 3.162,-10.84 0.55,2.389 c 0.165,0.716 0.71,1.284 1.417,1.479 0.706,0.196 1.466,-0.013 1.975,-0.543 7.444,-7.753 10.538,-15.255 9.197,-22.295 -1.389,-7.3 -7.225,-11.414 -8.595,-12.041 -2.53,-1.159 -5.065,-1.596 -7.448,-1.596" />
    </g>
    <g
       transform="matrix(1.25,0,0,-1.25,-606.2046,518.59179)"
       id="g216">
      <path
         id="path218"
         style="fill:#161e5c;fill-opacity:1;fill-rule:nonzero;stroke:none"
         d="m 0,0 c -1.016,-2.78 -1.866,-6.586 -0.682,-9.849 0.887,-2.444 2.786,-4.252 5.788,-5.503 1.164,1.275 2.871,3.911 1.465,7.421 C 6.174,-6.936 5.53,-6.383 4.558,-5.545 3.247,-4.419 1.59,-2.993 0,0 m 4.864,-19.536 c -4.777,1.652 -7.91,4.458 -9.312,8.34 -2.799,7.748 2.594,16.795 2.825,17.176 0.404,0.667 1.156,1.041 1.934,0.952 0.774,-0.086 1.427,-0.616 1.674,-1.355 1.7,-5.097 3.548,-6.686 5.18,-8.09 1.16,-0.997 2.359,-2.028 3.12,-3.931 2.51,-6.274 -1.328,-11.229 -3.708,-12.973 l -1.136,1.551 -0.577,-1.67 z" />
    </g>
  </g>
</svg>
