<?xml version="1.0" encoding="UTF-8" standalone="no"?>
<svg
   xmlns:dc="http://purl.org/dc/elements/1.1/"
   xmlns:cc="http://creativecommons.org/ns#"
   xmlns:rdf="http://www.w3.org/1999/02/22-rdf-syntax-ns#"
   xmlns:svg="http://www.w3.org/2000/svg"
   xmlns="http://www.w3.org/2000/svg"
   version="1.1"
   id="svg5212"
   viewBox="0 0 56.24998 63.238747"
   height="17.84738mm"
   width="15.874994mm">
  <defs
     id="defs5214" />
  <metadata
     id="metadata5217">
    <rdf:RDF>
      <cc:Work
         rdf:about="">
        <dc:format>image/svg+xml</dc:format>
        <dc:type
           rdf:resource="http://purl.org/dc/dcmitype/StillImage" />
        <dc:title></dc:title>
      </cc:Work>
    </rdf:RDF>
  </metadata>
  <g
     transform="translate(536.69642,-106.45712)"
     id="layer1">
    <g
       transform="matrix(1.25,0,0,-1.25,-530.48574,140.93337)"
       id="g182">
      <path
         id="path184"
         style="fill:#161e5c;fill-opacity:1;fill-rule:nonzero;stroke:none"
         d="m 0,0 17.904,0 c 0.702,0 1.352,-0.367 1.714,-0.969 0.361,-0.6 0.382,-1.346 0.054,-1.967 l -5.081,-9.596 18.067,15.613 -11.772,0 c -0.716,0 -1.377,0.383 -1.734,1.003 -0.356,0.62 -0.355,1.384 0.006,2.003 l 10.178,17.494 -19.775,0 L 0,0 Z m 7.84,-23.01 c -0.44,0 -0.881,0.145 -1.246,0.436 -0.752,0.599 -0.971,1.649 -0.521,2.5 L 14.583,-4 -2.969,-4 c -0.665,0 -1.287,0.331 -1.658,0.883 -0.372,0.552 -0.445,1.252 -0.195,1.868 L 6.36,26.332 c 0.306,0.755 1.039,1.249 1.853,1.249 l 24.6,0 c 0.716,0 1.377,-0.383 1.734,-1.003 0.357,-0.62 0.355,-1.384 -0.005,-2.003 L 24.364,7.081 l 13.667,0 c 0.836,0 1.583,-0.519 1.875,-1.303 0.291,-0.782 0.065,-1.664 -0.567,-2.211 L 9.148,-22.523 C 8.773,-22.847 8.307,-23.01 7.84,-23.01" />
    </g>
  </g>
</svg>
