<?xml version="1.0" encoding="UTF-8" standalone="no"?>
<svg
   xmlns:dc="http://purl.org/dc/elements/1.1/"
   xmlns:cc="http://creativecommons.org/ns#"
   xmlns:rdf="http://www.w3.org/1999/02/22-rdf-syntax-ns#"
   xmlns:svg="http://www.w3.org/2000/svg"
   xmlns="http://www.w3.org/2000/svg"
   version="1.1"
   id="svg5212"
   viewBox="0 0 62.500002 62.500001"
   height="17.638889mm"
   width="17.638889mm">
  <defs
     id="defs5214" />
  <metadata
     id="metadata5217">
    <rdf:RDF>
      <cc:Work
         rdf:about="">
        <dc:format>image/svg+xml</dc:format>
        <dc:type
           rdf:resource="http://purl.org/dc/dcmitype/StillImage" />
        <dc:title></dc:title>
      </cc:Work>
    </rdf:RDF>
  </metadata>
  <g
     transform="translate(-231.60714,-2158.2551)"
     id="layer1">
    <g
       transform="matrix(1.25,0,0,-1.25,257.85714,2186.1714)"
       id="g220">
      <path
         id="path222"
         style="fill:#161e5c;fill-opacity:1;fill-rule:nonzero;stroke:none"
         d="m 0,0 c 0,-1.289 -1.045,-2.333 -2.333,-2.333 -1.289,0 -2.334,1.044 -2.334,2.333 0,1.288 1.045,2.333 2.334,2.333 C -1.045,2.333 0,1.288 0,0" />
    </g>
    <g
       transform="matrix(1.25,0,0,-1.25,274.52402,2186.1714)"
       id="g224">
      <path
         id="path226"
         style="fill:#161e5c;fill-opacity:1;fill-rule:nonzero;stroke:none"
         d="m 0,0 c 0,-1.289 -1.045,-2.333 -2.333,-2.333 -1.289,0 -2.334,1.044 -2.334,2.333 0,1.288 1.045,2.333 2.334,2.333 C -1.045,2.333 0,1.288 0,0" />
    </g>
    <g
       transform="matrix(1.25,0,0,-1.25,262.85714,2163.2551)"
       id="g228">
      <path
         id="path230"
         style="fill:#161e5c;fill-opacity:1;fill-rule:nonzero;stroke:none"
         d="m 0,0 c -11.58,0 -21,-9.421 -21,-21 0,-11.579 9.42,-21 21,-21 11.58,0 21,9.421 21,21 C 21,-9.421 11.58,0 0,0 m 0,-46 c -13.785,0 -25,11.215 -25,25 C -25,-7.215 -13.785,4 0,4 13.785,4 25,-7.215 25,-21 25,-34.785 13.785,-46 0,-46" />
    </g>
    <path
       id="path232"
       style="fill:#161e5c;fill-opacity:1;fill-rule:nonzero;stroke:none"
       d="m 277.85677,2200.755 -27.5,0 0,-5 27.5,0 0,5 z" />
  </g>
</svg>
