<svg id="svg" xmlns="http://www.w3.org/2000/svg" xmlns:xlink="http://www.w3.org/1999/xlink" width="400" height="154.82606565409114" viewBox="0, 0, 400,154.82606565409114"><g id="svgg"><path id="path0" d="M4.300 18.671 C 2.799 18.925,1.243 20.018,0.500 21.341 L 0.083 22.083 0.041 86.413 C 0.002 145.846,0.019 150.805,0.274 151.571 C 0.642 152.680,1.771 153.869,2.883 154.318 L 3.750 154.669 190.917 154.626 L 378.083 154.583 378.782 154.210 C 379.723 153.707,380.488 152.887,381.043 151.789 L 381.502 150.879 381.459 113.398 L 381.417 75.917 381.031 75.163 C 380.338 73.808,379.082 72.677,377.909 72.351 C 376.438 71.943,373.653 72.295,373.283 72.936 C 373.210 73.063,373.054 73.167,372.936 73.167 C 372.647 73.167,371.797 74.249,371.221 75.349 L 370.750 76.250 370.706 110.208 L 370.663 144.167 190.665 144.167 L 10.667 144.167 10.667 86.750 L 10.667 29.333 165.377 29.333 C 318.141 29.333,320.099 29.329,320.974 29.010 C 321.931 28.660,322.071 28.566,323.030 27.633 C 325.236 25.486,324.918 21.714,322.354 19.625 C 322.157 19.465,321.955 19.333,321.906 19.333 C 321.856 19.333,321.463 19.165,321.033 18.958 L 320.250 18.583 162.667 18.561 C 75.996 18.549,4.731 18.598,4.300 18.671 " stroke="none" fill="#7cdce4" fill-rule="evenodd"></path><path id="path1" d="M373.549 0.295 C 373.163 0.456,372.692 0.756,372.501 0.961 C 372.310 1.166,372.088 1.333,372.007 1.333 C 371.926 1.333,371.690 1.615,371.481 1.958 C 371.272 2.302,371.053 2.621,370.994 2.667 C 370.571 2.998,370.500 4.226,370.500 11.275 L 370.500 18.667 363.073 18.667 L 355.646 18.667 354.754 19.089 C 353.606 19.632,352.625 20.620,352.070 21.792 C 351.528 22.940,351.513 25.703,352.047 26.237 C 352.204 26.395,352.333 26.632,352.333 26.764 C 352.333 27.137,353.685 28.495,354.327 28.768 C 354.645 28.903,354.961 29.104,355.030 29.215 C 355.124 29.367,357.043 29.428,362.827 29.465 L 370.500 29.513 370.501 36.798 C 370.502 43.737,370.595 45.333,370.997 45.333 C 371.078 45.333,371.196 45.502,371.260 45.708 C 371.459 46.355,372.764 47.500,373.661 47.816 C 374.123 47.979,374.551 48.162,374.612 48.223 C 374.777 48.388,376.960 48.356,377.294 48.184 C 377.453 48.102,377.921 47.898,378.333 47.731 C 379.331 47.327,380.253 46.366,380.847 45.110 L 381.333 44.083 381.333 36.798 L 381.333 29.513 388.875 29.461 L 396.417 29.410 397.219 28.964 C 400.774 26.987,401.044 21.235,397.667 19.434 C 397.438 19.312,397.025 19.090,396.750 18.940 C 396.309 18.701,395.369 18.669,388.792 18.668 L 381.333 18.667 381.328 11.292 L 381.323 3.917 380.851 2.968 C 380.332 1.924,379.354 0.863,378.481 0.398 C 377.648 -0.046,374.518 -0.112,373.549 0.295 M69.750 63.517 C 69.200 63.596,68.600 63.730,68.417 63.815 C 68.233 63.900,67.708 64.060,67.250 64.170 C 65.820 64.516,64.667 64.889,64.667 65.008 C 64.667 65.070,64.252 65.252,63.745 65.411 C 63.238 65.571,62.726 65.798,62.608 65.916 C 62.490 66.034,61.986 66.336,61.488 66.587 C 60.991 66.837,60.523 67.145,60.450 67.271 C 60.377 67.397,60.227 67.501,60.117 67.502 C 59.355 67.510,53.833 73.048,53.833 73.805 C 53.833 73.887,53.661 74.134,53.451 74.352 C 53.241 74.571,52.925 75.087,52.748 75.500 C 52.571 75.912,52.375 76.287,52.312 76.333 C 52.149 76.453,51.333 78.334,51.333 78.590 C 51.333 78.709,51.264 78.831,51.179 78.861 C 51.004 78.924,50.421 81.043,50.240 82.274 C 50.174 82.719,50.037 83.137,49.935 83.202 C 49.654 83.383,49.677 92.031,49.958 92.125 C 50.073 92.163,50.167 92.357,50.168 92.556 C 50.170 93.010,50.970 96.173,51.143 96.408 C 51.214 96.505,51.487 97.108,51.750 97.750 C 52.014 98.392,52.282 98.954,52.346 99.000 C 52.410 99.046,52.573 99.349,52.708 99.673 C 52.843 99.998,53.061 100.373,53.191 100.507 C 53.322 100.640,53.609 101.050,53.828 101.417 C 54.556 102.633,57.591 106.000,57.959 106.000 C 58.063 106.000,58.259 106.159,58.396 106.354 C 58.532 106.548,58.793 106.792,58.975 106.896 C 59.376 107.122,61.287 108.404,61.742 108.751 C 61.921 108.888,62.126 109.000,62.197 109.000 C 62.269 109.000,62.961 109.297,63.735 109.660 C 64.510 110.023,65.655 110.453,66.280 110.616 C 66.905 110.778,67.455 110.963,67.502 111.026 C 68.088 111.816,80.632 111.801,81.167 111.010 C 81.212 110.942,81.737 110.794,82.333 110.681 C 83.625 110.436,85.217 109.997,85.333 109.853 C 85.379 109.796,86.073 109.533,86.875 109.267 C 87.677 109.001,88.333 108.728,88.333 108.661 C 88.333 108.594,88.746 108.371,89.250 108.167 C 89.754 107.962,90.167 107.728,90.167 107.647 C 90.167 107.566,90.275 107.500,90.407 107.500 C 91.151 107.500,91.167 107.291,91.167 97.583 C 91.167 89.548,91.134 88.361,90.907 88.037 L 90.648 87.667 83.433 87.667 C 74.490 87.667,75.500 87.161,75.500 91.643 C 75.500 96.031,75.173 95.667,79.120 95.667 L 82.167 95.667 82.167 98.327 C 82.167 101.353,82.313 101.066,80.500 101.588 C 79.904 101.760,79.378 101.955,79.331 102.021 C 78.809 102.758,70.461 102.745,70.004 102.007 C 69.954 101.926,69.689 101.804,69.415 101.735 C 68.825 101.587,67.452 100.999,67.333 100.843 C 67.287 100.783,66.884 100.523,66.437 100.264 C 65.458 99.698,65.034 99.352,63.928 98.215 C 62.554 96.802,62.275 96.448,61.625 95.298 C 61.510 95.095,61.329 94.834,61.223 94.717 C 61.116 94.601,60.861 93.998,60.656 93.378 C 60.451 92.757,60.230 92.212,60.165 92.167 C 59.397 91.629,59.393 83.353,60.161 82.833 C 60.229 82.787,60.477 82.209,60.713 81.548 C 60.949 80.887,61.223 80.249,61.322 80.131 C 61.421 80.013,61.809 79.445,62.185 78.869 C 63.345 77.092,65.806 74.781,67.042 74.309 C 67.294 74.213,67.500 74.076,67.500 74.004 C 67.500 73.932,67.969 73.703,68.542 73.495 C 69.115 73.286,69.883 72.984,70.250 72.823 C 71.130 72.437,73.949 72.111,75.230 72.247 C 76.717 72.404,78.166 72.667,78.478 72.835 C 78.628 72.916,79.200 73.142,79.750 73.336 C 80.300 73.531,81.094 73.910,81.515 74.178 C 81.935 74.447,82.362 74.667,82.463 74.667 C 82.565 74.667,82.746 74.799,82.866 74.961 C 82.985 75.123,83.271 75.377,83.500 75.525 C 83.729 75.674,84.097 75.954,84.317 76.147 C 85.357 77.063,85.625 76.876,90.094 72.132 C 91.488 70.653,90.708 69.070,87.860 67.597 C 87.570 67.447,87.333 67.260,87.333 67.181 C 87.333 67.101,86.846 66.824,86.250 66.564 C 85.654 66.305,85.167 66.043,85.167 65.983 C 85.167 65.923,84.698 65.701,84.125 65.489 C 83.552 65.278,83.046 65.054,83.000 64.993 C 82.883 64.838,81.426 64.378,80.333 64.151 C 79.829 64.047,79.342 63.901,79.250 63.828 C 78.697 63.388,72.149 63.173,69.750 63.517 M116.200 63.533 C 116.090 63.643,116.000 63.831,116.000 63.950 C 116.000 64.069,115.939 64.167,115.864 64.167 C 115.736 64.167,115.153 65.475,114.919 66.292 C 114.859 66.498,114.751 66.667,114.678 66.667 C 114.604 66.667,114.329 67.229,114.067 67.917 C 113.804 68.604,113.532 69.167,113.461 69.167 C 113.391 69.167,113.333 69.240,113.333 69.330 C 113.333 69.481,113.024 70.174,111.586 73.250 C 111.286 73.892,110.866 74.829,110.654 75.333 C 110.441 75.837,110.221 76.287,110.165 76.333 C 110.109 76.379,109.884 76.867,109.667 77.417 C 109.449 77.967,109.219 78.454,109.156 78.500 C 109.093 78.546,108.832 79.107,108.577 79.747 C 108.322 80.387,108.012 81.011,107.890 81.134 C 107.767 81.257,107.667 81.455,107.667 81.574 C 107.667 81.839,106.999 83.384,106.834 83.500 C 106.769 83.546,106.549 84.032,106.346 84.581 C 106.142 85.130,105.907 85.621,105.824 85.672 C 105.741 85.723,105.486 86.281,105.258 86.912 C 105.029 87.542,104.782 88.102,104.708 88.154 C 104.563 88.258,104.144 89.215,103.810 90.208 C 103.694 90.552,103.549 90.833,103.487 90.833 C 103.425 90.833,103.279 91.077,103.163 91.375 C 103.047 91.673,102.668 92.517,102.321 93.250 C 101.974 93.983,101.639 94.790,101.577 95.042 C 101.515 95.294,101.409 95.500,101.342 95.500 C 101.275 95.500,101.003 96.044,100.738 96.708 C 100.473 97.373,100.161 98.016,100.045 98.137 C 99.929 98.258,99.833 98.422,99.833 98.502 C 99.833 98.582,99.526 99.308,99.151 100.115 C 98.775 100.923,98.280 101.996,98.049 102.500 C 97.349 104.033,96.663 105.508,95.918 107.083 C 94.740 109.574,94.648 110.137,95.296 110.875 C 95.573 111.191,103.167 111.338,103.167 111.027 C 103.167 110.950,103.350 110.803,103.575 110.701 C 103.984 110.514,105.102 108.403,105.547 106.976 C 105.658 106.622,105.798 106.333,105.859 106.333 C 105.920 106.333,106.181 105.790,106.438 105.125 C 106.695 104.460,106.956 103.879,107.017 103.833 C 107.079 103.787,107.246 103.469,107.389 103.125 L 107.650 102.500 117.469 102.500 L 127.288 102.500 127.574 103.250 C 127.732 103.662,127.911 104.000,127.973 104.000 C 128.035 104.000,128.183 104.313,128.303 104.696 C 128.422 105.079,128.747 105.848,129.025 106.405 C 129.303 106.961,129.685 107.829,129.873 108.333 C 130.062 108.837,130.272 109.287,130.339 109.333 C 130.407 109.379,130.582 109.705,130.729 110.057 C 130.879 110.416,131.143 110.735,131.331 110.784 C 131.516 110.833,131.667 110.938,131.667 111.019 C 131.667 111.405,139.347 111.186,139.676 110.792 C 140.150 110.223,139.859 108.000,139.311 108.000 C 139.231 108.000,139.167 107.906,139.167 107.792 C 139.168 107.554,138.312 105.460,138.163 105.333 C 138.109 105.287,137.961 104.987,137.835 104.667 C 137.627 104.139,136.992 102.747,135.669 99.917 C 134.274 96.934,134.000 96.305,134.000 96.092 C 134.000 95.963,133.906 95.758,133.792 95.637 C 133.521 95.351,133.000 94.222,133.000 93.923 C 133.000 93.795,132.900 93.590,132.777 93.467 C 132.654 93.345,132.345 92.721,132.090 92.081 C 131.835 91.440,131.571 90.879,131.504 90.833 C 131.438 90.787,131.219 90.309,131.019 89.770 C 130.819 89.230,130.478 88.480,130.263 88.103 C 130.047 87.725,129.778 87.117,129.664 86.750 C 129.551 86.383,129.361 85.971,129.242 85.833 C 129.123 85.696,128.859 85.133,128.655 84.583 C 128.451 84.033,128.223 83.543,128.148 83.494 C 128.073 83.445,127.815 82.883,127.575 82.245 C 127.336 81.608,127.083 81.048,127.013 81.001 C 126.944 80.955,126.681 80.373,126.429 79.708 C 126.177 79.044,125.913 78.500,125.842 78.500 C 125.770 78.500,125.582 78.085,125.422 77.578 C 125.263 77.071,125.035 76.559,124.916 76.439 C 124.796 76.320,124.586 75.891,124.449 75.486 C 124.112 74.497,123.785 73.771,123.624 73.654 C 123.551 73.602,123.309 73.056,123.086 72.441 C 122.863 71.827,122.565 71.208,122.424 71.067 C 122.282 70.925,122.167 70.705,122.167 70.577 C 122.167 70.317,121.644 69.130,121.472 68.999 C 121.411 68.952,121.169 68.405,120.935 67.783 C 120.701 67.161,120.395 66.538,120.255 66.398 C 120.115 66.258,120.000 66.046,120.000 65.927 C 120.000 65.599,119.306 64.000,119.164 64.000 C 119.095 64.000,119.000 63.850,118.952 63.667 C 118.848 63.272,116.572 63.162,116.200 63.533 M166.037 63.593 L 165.667 63.852 165.667 87.146 L 165.667 110.440 166.085 110.803 C 166.487 111.153,166.638 111.167,170.239 111.167 L 173.976 111.167 174.321 110.728 C 174.665 110.291,174.667 110.204,174.667 95.894 C 174.667 87.977,174.707 81.500,174.757 81.500 C 174.863 81.500,176.167 82.853,176.167 82.964 C 176.167 83.006,177.039 83.988,178.104 85.145 C 179.170 86.303,180.501 87.762,181.062 88.388 C 181.624 89.015,182.383 89.852,182.750 90.249 C 183.117 90.647,183.867 91.470,184.417 92.080 C 184.967 92.689,185.885 93.673,186.458 94.265 C 187.031 94.857,187.500 95.397,187.500 95.466 C 187.500 95.534,187.950 96.025,188.500 96.556 C 189.050 97.087,189.500 97.560,189.500 97.607 C 189.500 97.680,190.962 99.323,192.750 101.257 C 193.025 101.555,193.737 102.337,194.333 102.994 C 194.929 103.652,195.679 104.477,196.000 104.828 C 196.321 105.179,197.071 106.008,197.667 106.669 C 198.262 107.331,199.173 108.332,199.689 108.895 C 200.206 109.457,200.985 110.310,201.420 110.792 L 202.212 111.667 203.664 111.667 C 205.919 111.667,205.667 114.665,205.667 87.880 C 205.667 66.048,205.650 64.683,205.375 64.343 C 205.069 63.965,197.256 63.854,196.889 64.222 C 196.812 64.299,196.713 70.710,196.667 78.470 L 196.583 92.579 196.000 91.931 C 195.679 91.575,194.734 90.564,193.900 89.684 C 193.066 88.803,192.004 87.671,191.540 87.167 C 191.076 86.662,190.334 85.866,189.890 85.397 C 189.446 84.928,188.258 83.664,187.250 82.588 C 186.242 81.512,184.910 80.125,184.292 79.506 C 183.673 78.888,183.167 78.327,183.167 78.260 C 183.167 78.194,182.454 77.437,181.583 76.579 C 180.713 75.721,180.000 74.966,180.000 74.902 C 180.000 74.837,179.325 74.115,178.500 73.297 C 177.675 72.479,177.000 71.764,177.000 71.707 C 177.000 71.650,176.376 70.962,175.613 70.177 C 173.118 67.609,171.222 65.602,170.311 64.563 C 169.819 64.002,169.267 63.496,169.083 63.440 C 168.393 63.228,166.416 63.327,166.037 63.593 M145.875 64.279 L 145.500 64.541 145.500 87.460 L 145.500 110.378 145.925 110.773 C 146.562 111.363,153.681 111.393,154.189 110.808 C 154.633 110.296,154.681 64.705,154.238 64.262 C 153.849 63.873,146.436 63.888,145.875 64.279 M217.167 64.121 C 217.029 64.174,216.862 64.299,216.794 64.400 C 216.648 64.619,216.622 110.189,216.768 110.570 C 216.823 110.715,216.973 110.833,217.101 110.833 C 217.229 110.833,217.333 110.908,217.333 111.000 C 217.333 111.106,218.718 111.167,221.155 111.167 L 224.976 111.167 225.321 110.728 C 225.661 110.296,225.667 110.138,225.667 101.561 L 225.667 92.833 234.308 92.833 C 242.467 92.833,242.964 92.816,243.224 92.529 C 243.684 92.021,243.634 85.467,243.167 85.000 C 242.842 84.675,242.611 84.667,234.250 84.667 L 225.667 84.667 225.667 78.500 L 225.667 72.333 235.558 72.333 C 246.059 72.333,246.390 72.310,246.679 71.552 C 247.016 70.664,246.869 64.702,246.500 64.333 C 246.173 64.006,218.005 63.803,217.167 64.121 M253.833 64.333 C 253.194 64.973,253.366 97.411,254.013 98.075 C 254.097 98.162,254.167 98.360,254.167 98.514 C 254.167 98.884,255.008 101.393,255.167 101.500 C 255.236 101.546,255.460 101.977,255.666 102.458 C 255.872 102.940,256.093 103.333,256.157 103.333 C 256.220 103.333,256.442 103.636,256.650 104.006 C 257.509 105.535,262.040 109.500,262.928 109.500 C 263.046 109.500,263.259 109.617,263.402 109.759 C 263.679 110.036,265.866 110.833,266.349 110.833 C 266.508 110.833,266.664 110.905,266.694 110.993 C 266.991 111.844,277.842 111.844,278.139 110.993 C 278.169 110.905,278.325 110.833,278.485 110.833 C 278.875 110.833,281.208 110.034,281.324 109.860 C 281.375 109.784,281.829 109.519,282.333 109.270 C 284.853 108.026,287.912 104.971,289.110 102.500 C 289.355 101.996,289.616 101.542,289.691 101.492 C 289.857 101.380,290.667 98.867,290.667 98.460 C 290.667 98.299,290.732 98.167,290.812 98.167 C 291.458 98.167,291.643 64.977,291.000 64.333 C 290.632 63.965,283.054 63.813,282.500 64.163 C 282.282 64.301,282.239 66.280,282.167 79.772 C 282.101 91.924,282.039 95.237,281.875 95.292 C 281.760 95.330,281.667 95.459,281.667 95.580 C 281.667 96.078,280.979 97.973,280.668 98.331 C 280.484 98.544,280.333 98.768,280.333 98.830 C 280.333 99.236,278.108 101.075,276.918 101.653 C 272.584 103.758,266.261 102.233,264.400 98.635 C 264.248 98.340,264.030 98.006,263.916 97.892 C 263.802 97.778,263.573 97.174,263.406 96.551 C 263.240 95.927,263.024 95.363,262.927 95.298 C 262.805 95.216,262.724 90.358,262.667 79.750 C 262.594 66.278,262.552 64.301,262.333 64.163 C 261.779 63.813,254.202 63.965,253.833 64.333 M302.262 64.262 C 301.819 64.705,301.867 110.296,302.311 110.808 L 302.622 111.167 315.632 111.167 L 328.642 111.167 328.988 110.728 C 329.561 109.999,329.515 103.896,328.931 103.218 L 328.529 102.750 319.765 102.704 L 311.000 102.658 311.000 83.813 C 311.000 65.028,310.999 64.967,310.655 64.484 L 310.311 64.000 306.417 64.000 C 303.100 64.000,302.485 64.039,302.262 64.262 M118.019 82.003 C 118.089 82.051,118.346 82.632,118.592 83.295 C 118.838 83.958,119.097 84.500,119.168 84.500 C 119.239 84.500,119.346 84.693,119.405 84.929 C 119.464 85.165,119.836 86.046,120.232 86.887 C 120.628 87.728,121.010 88.604,121.081 88.833 C 121.153 89.063,121.265 89.287,121.331 89.333 C 121.396 89.379,121.658 89.942,121.912 90.583 C 122.166 91.225,122.428 91.787,122.494 91.833 C 122.559 91.879,122.819 92.460,123.071 93.124 C 123.322 93.788,123.597 94.374,123.681 94.425 C 124.242 94.773,123.311 94.833,117.431 94.833 L 111.029 94.833 111.223 94.292 C 111.329 93.994,111.495 93.667,111.590 93.565 C 111.686 93.463,111.907 92.956,112.083 92.440 C 112.259 91.923,112.456 91.500,112.522 91.500 C 112.587 91.500,112.731 91.219,112.841 90.875 C 112.952 90.531,113.328 89.637,113.677 88.887 C 114.027 88.137,114.404 87.219,114.516 86.845 C 114.628 86.472,114.773 86.167,114.839 86.167 C 114.906 86.167,115.052 85.923,115.166 85.625 C 115.279 85.327,115.581 84.633,115.836 84.083 C 116.092 83.533,116.437 82.746,116.604 82.333 C 116.771 81.921,116.956 81.546,117.015 81.500 C 117.074 81.454,117.179 81.233,117.249 81.008 C 117.372 80.616,117.387 80.626,117.635 81.258 C 117.777 81.620,117.950 81.956,118.019 82.003 " stroke="none" fill="#5c5c5c" fill-rule="evenodd"></path><path id="path2" d="" stroke="none" fill="#6ce0c0" fill-rule="evenodd"></path><path id="path3" d="" stroke="none" fill="#6ce0c0" fill-rule="evenodd"></path><path id="path4" d="" stroke="none" fill="#6ce0c0" fill-rule="evenodd"></path></g></svg>