<svg id="svg" xmlns="http://www.w3.org/2000/svg" xmlns:xlink="http://www.w3.org/1999/xlink" width="400" height="400" viewBox="0, 0, 400,400"><g id="svgg"><path id="path0" d="M92.400 157.600 C 92.400 157.820,92.175 158.000,91.900 158.000 C 91.157 158.001,89.425 159.610,88.456 161.200 L 87.603 162.600 87.603 200.000 C 87.603 241.552,87.403 238.320,90.135 240.931 C 93.112 243.776,99.000 243.544,101.628 240.480 C 103.917 237.811,103.790 239.242,103.918 214.500 C 103.985 201.616,104.191 191.600,104.390 191.600 C 105.014 191.600,105.799 192.594,117.290 207.922 C 123.507 216.215,128.809 223.270,129.072 223.600 C 129.335 223.930,131.348 226.630,133.547 229.600 C 135.745 232.570,137.696 235.180,137.883 235.400 C 138.069 235.620,138.662 236.430,139.199 237.200 C 144.343 244.565,152.529 244.994,155.435 238.051 C 156.469 235.583,156.255 163.647,155.209 161.684 C 152.358 156.336,145.527 155.389,141.650 159.804 C 139.650 162.082,139.605 162.658,139.602 185.667 C 139.600 206.403,139.526 208.400,138.761 208.400 C 138.567 208.400,136.026 205.205,133.114 201.300 C 130.202 197.395,127.500 193.851,127.109 193.425 C 126.719 192.998,126.400 192.506,126.400 192.331 C 126.400 192.157,125.957 191.516,125.415 190.907 C 124.874 190.298,122.087 186.650,119.222 182.800 C 116.358 178.950,113.871 175.620,113.696 175.400 C 113.521 175.180,112.942 174.370,112.408 173.600 C 111.875 172.830,111.331 172.110,111.200 172.000 C 111.069 171.890,110.523 171.170,109.986 170.400 C 109.015 169.006,108.173 167.921,107.387 167.055 C 107.160 166.805,106.538 165.970,106.006 165.200 C 105.474 164.430,104.931 163.710,104.800 163.600 C 104.669 163.490,104.125 162.770,103.592 162.000 C 100.968 158.210,99.252 157.200,95.438 157.200 C 93.679 157.200,92.400 157.368,92.400 157.600 M178.411 158.070 C 176.694 159.075,175.699 160.196,174.965 161.949 C 174.098 164.019,174.125 236.078,174.993 238.051 C 175.798 239.881,176.809 240.994,178.556 241.976 C 180.823 243.249,219.150 243.264,221.414 241.992 C 223.145 241.020,224.770 239.253,224.787 238.324 C 224.794 237.952,224.980 237.536,225.200 237.400 C 226.493 236.601,225.270 230.907,223.405 229.041 C 221.217 226.854,220.927 226.816,205.600 226.704 L 191.400 226.600 191.292 217.500 L 191.185 208.400 204.944 208.400 C 220.212 208.400,220.280 208.390,223.209 205.744 C 224.084 204.954,224.800 203.978,224.800 203.577 C 224.800 203.176,224.980 202.736,225.200 202.600 C 225.420 202.464,225.600 201.294,225.600 200.000 C 225.600 198.706,225.420 197.536,225.200 197.400 C 224.980 197.264,224.800 196.857,224.800 196.496 C 224.800 195.612,221.353 192.400,220.403 192.400 C 219.987 192.400,219.536 192.220,219.400 192.000 C 219.243 191.746,214.063 191.600,205.176 191.600 L 191.200 191.600 191.200 182.638 L 191.200 173.676 205.500 173.530 C 221.134 173.370,221.062 173.381,223.411 170.896 C 225.314 168.884,226.496 163.401,225.200 162.600 C 224.980 162.464,224.800 162.048,224.800 161.676 C 224.799 160.729,223.259 159.044,221.480 158.045 C 219.176 156.751,180.625 156.773,178.411 158.070 M248.054 158.046 C 244.290 160.253,243.228 164.070,244.755 169.900 C 245.000 170.835,245.366 172.275,245.568 173.100 C 245.771 173.925,246.300 175.950,246.745 177.600 C 247.189 179.250,247.646 180.960,247.761 181.400 C 248.107 182.723,251.655 197.234,252.212 199.600 C 252.713 201.726,253.621 205.394,254.416 208.500 C 254.627 209.325,254.965 210.675,255.167 211.500 C 255.369 212.325,255.744 213.810,256.000 214.800 C 256.512 216.778,257.069 218.993,257.633 221.300 C 257.835 222.125,258.180 223.520,258.400 224.400 C 258.620 225.280,258.980 226.720,259.200 227.600 C 260.273 231.894,260.481 232.688,260.827 233.828 C 261.032 234.504,261.200 235.438,261.200 235.905 C 261.200 236.371,261.380 236.864,261.600 237.000 C 261.820 237.136,262.000 237.581,262.000 237.990 C 262.000 238.790,264.434 241.483,265.895 242.300 C 269.544 244.340,277.200 241.312,277.200 237.829 C 277.200 237.509,277.380 237.136,277.600 237.000 C 277.820 236.864,278.000 236.349,278.000 235.856 C 278.000 235.363,278.149 234.789,278.330 234.580 C 278.512 234.371,278.893 233.390,279.176 232.400 C 279.459 231.410,279.846 230.240,280.036 229.800 C 280.225 229.360,281.560 225.310,283.002 220.800 C 286.876 208.683,286.903 208.653,288.777 214.490 C 289.502 216.751,290.242 218.960,290.421 219.400 C 290.601 219.840,290.961 220.920,291.223 221.800 C 291.484 222.680,291.856 223.713,292.049 224.095 C 292.242 224.477,292.400 225.141,292.400 225.571 C 292.400 226.001,292.580 226.464,292.800 226.600 C 293.020 226.736,293.200 227.199,293.200 227.629 C 293.200 228.059,293.374 228.723,293.586 229.105 C 293.798 229.487,294.528 231.510,295.208 233.600 C 297.644 241.093,299.349 242.800,304.400 242.800 C 307.431 242.800,308.324 242.460,310.192 240.592 C 311.668 239.116,312.400 237.866,312.400 236.824 C 312.400 236.392,312.561 235.624,312.758 235.119 C 313.251 233.856,313.725 232.052,315.575 224.400 C 316.452 220.770,317.707 215.640,318.362 213.000 C 319.018 210.360,319.842 207.030,320.194 205.600 C 320.545 204.170,321.020 202.280,321.249 201.400 C 321.478 200.520,321.831 199.125,322.033 198.300 C 322.404 196.783,322.848 195.000,323.627 191.900 C 323.862 190.965,324.222 189.647,324.427 188.972 C 324.632 188.296,324.800 187.362,324.800 186.895 C 324.800 186.429,324.980 185.936,325.200 185.800 C 325.420 185.664,325.600 184.944,325.600 184.200 C 325.600 183.456,325.780 182.736,326.000 182.600 C 326.220 182.464,326.400 181.744,326.400 181.000 C 326.400 180.256,326.580 179.536,326.800 179.400 C 327.020 179.264,327.200 178.544,327.200 177.800 C 327.200 177.056,327.380 176.336,327.600 176.200 C 327.820 176.064,328.000 175.421,328.000 174.771 C 328.000 174.121,328.159 173.277,328.353 172.895 C 332.260 165.200,328.895 157.200,321.751 157.200 C 316.290 157.200,314.648 159.177,312.367 168.500 C 311.996 170.017,311.552 171.800,310.773 174.900 C 310.538 175.835,310.178 177.153,309.973 177.828 C 309.768 178.504,309.600 179.438,309.600 179.905 C 309.600 180.371,309.439 180.852,309.242 180.974 C 309.045 181.095,308.782 181.871,308.658 182.697 C 308.128 186.207,307.892 187.220,307.556 187.427 C 307.360 187.548,307.200 188.256,307.200 189.000 C 307.200 189.744,307.039 190.452,306.842 190.574 C 306.645 190.695,306.390 191.471,306.275 192.297 C 306.080 193.694,305.814 194.865,304.753 199.000 C 304.527 199.880,304.246 201.185,304.127 201.900 C 303.609 205.036,302.655 203.536,300.058 195.500 C 298.690 191.265,297.397 187.487,297.185 187.105 C 296.973 186.723,296.800 186.059,296.800 185.629 C 296.800 185.199,296.620 184.736,296.400 184.600 C 296.180 184.464,296.000 183.924,296.000 183.400 C 296.000 182.876,295.820 182.336,295.600 182.200 C 295.380 182.064,295.200 181.586,295.200 181.138 C 295.200 179.664,293.245 177.261,291.037 176.021 C 287.137 173.830,279.273 176.527,279.212 180.076 C 279.205 180.448,279.020 180.864,278.800 181.000 C 278.580 181.136,278.400 181.651,278.400 182.144 C 278.400 182.637,278.252 183.211,278.072 183.420 C 277.892 183.629,276.415 187.850,274.791 192.800 C 271.730 202.125,270.895 204.081,270.378 203.131 C 270.218 202.839,268.711 197.020,267.028 190.200 C 265.346 183.380,263.811 177.170,263.617 176.400 C 263.424 175.630,263.086 174.280,262.866 173.400 C 262.646 172.520,262.256 170.990,262.000 170.000 C 261.744 169.010,261.379 167.570,261.189 166.800 C 260.133 162.516,259.679 161.369,258.489 159.979 C 256.032 157.108,251.186 156.210,248.054 158.046 " stroke="none" fill="#fcfbfb" fill-rule="evenodd"></path><path id="path1" d="M193.100 0.267 C 192.495 0.369,192.000 0.621,192.000 0.827 C 192.000 1.032,191.640 1.200,191.200 1.200 C 190.760 1.200,190.400 1.380,190.400 1.600 C 190.400 1.820,190.040 2.000,189.600 2.000 C 189.160 2.000,188.800 2.180,188.800 2.400 C 188.800 2.620,188.480 2.800,188.088 2.800 C 187.697 2.800,187.117 3.160,186.800 3.600 C 186.483 4.040,185.997 4.400,185.720 4.400 C 185.085 4.400,176.400 12.916,176.400 13.539 C 176.400 13.793,176.220 14.000,176.000 14.000 C 175.780 14.000,175.600 14.198,175.600 14.440 C 175.600 14.681,175.060 15.383,174.400 16.000 C 173.740 16.617,173.200 17.292,173.200 17.501 C 173.200 17.710,172.660 18.446,172.000 19.137 C 171.340 19.828,170.800 20.592,170.800 20.836 C 170.800 21.080,170.260 21.783,169.600 22.400 C 168.940 23.017,168.400 23.737,168.400 24.000 C 168.400 24.263,167.860 24.983,167.200 25.600 C 166.540 26.217,165.991 26.874,165.980 27.060 C 165.970 27.247,165.251 28.120,164.383 29.000 C 163.516 29.880,162.804 30.785,162.803 31.012 C 162.801 31.238,162.450 31.676,162.021 31.985 C 161.593 32.293,161.334 32.693,161.445 32.873 C 161.556 33.053,161.367 33.200,161.024 33.200 C 160.681 33.200,160.400 33.352,160.400 33.539 C 160.400 34.180,158.905 35.600,158.229 35.600 C 157.857 35.600,157.664 35.780,157.800 36.000 C 158.081 36.455,157.355 36.522,153.400 36.408 C 151.860 36.363,150.540 36.163,150.467 35.963 C 150.393 35.763,149.628 35.600,148.767 35.600 C 147.905 35.600,147.200 35.420,147.200 35.200 C 147.200 34.980,146.660 34.800,146.000 34.800 C 145.340 34.800,144.800 34.620,144.800 34.400 C 144.800 34.180,144.260 34.000,143.600 34.000 C 142.940 34.000,142.400 33.820,142.400 33.600 C 142.400 33.380,142.051 33.200,141.624 33.200 C 141.197 33.200,140.736 33.020,140.600 32.800 C 140.464 32.580,140.003 32.400,139.576 32.400 C 139.149 32.400,138.799 32.265,138.797 32.100 C 138.793 31.741,136.856 30.800,136.120 30.800 C 135.834 30.800,135.600 30.620,135.600 30.400 C 135.600 30.180,135.240 30.000,134.800 30.000 C 134.360 30.000,134.000 29.853,134.000 29.672 C 134.000 29.492,133.100 29.100,132.000 28.800 C 130.900 28.500,130.000 28.114,130.000 27.941 C 130.000 27.769,129.100 27.508,128.000 27.362 C 126.900 27.216,126.000 26.940,126.000 26.748 C 126.000 26.557,125.550 26.400,125.000 26.400 C 124.450 26.400,124.000 26.220,124.000 26.000 C 124.000 25.780,123.460 25.600,122.800 25.600 C 122.140 25.600,121.600 25.420,121.600 25.200 C 121.600 24.980,120.981 24.800,120.224 24.800 C 119.467 24.800,118.736 24.620,118.600 24.400 C 118.464 24.180,117.283 24.000,115.976 24.000 C 114.659 24.000,113.600 23.822,113.600 23.600 C 113.600 23.369,112.333 23.200,110.600 23.200 C 108.867 23.200,107.600 23.369,107.600 23.600 C 107.600 23.820,106.715 24.000,105.633 24.000 C 104.552 24.000,103.607 24.163,103.533 24.362 C 103.460 24.561,102.950 24.786,102.400 24.862 C 101.850 24.938,101.160 25.227,100.868 25.504 C 100.575 25.781,100.203 25.925,100.041 25.825 C 99.878 25.725,99.493 25.993,99.185 26.421 C 98.876 26.850,98.348 27.202,98.012 27.205 C 97.247 27.212,92.800 31.697,92.800 32.461 C 92.800 32.770,92.440 33.283,92.000 33.600 C 91.560 33.917,91.200 34.497,91.200 34.888 C 91.200 35.280,91.020 35.600,90.800 35.600 C 90.580 35.600,90.400 36.050,90.400 36.600 C 90.400 37.150,90.220 37.600,90.000 37.600 C 89.780 37.600,89.600 38.050,89.600 38.600 C 89.600 39.150,89.420 39.600,89.200 39.600 C 88.980 39.600,88.800 40.129,88.800 40.776 C 88.800 41.423,88.620 42.064,88.400 42.200 C 88.180 42.336,88.000 43.067,88.000 43.824 C 88.000 44.581,87.820 45.200,87.600 45.200 C 87.380 45.200,87.200 45.999,87.200 46.976 C 87.200 47.953,87.020 48.864,86.800 49.000 C 86.580 49.136,86.400 50.407,86.400 51.824 C 86.400 53.275,86.225 54.400,86.000 54.400 C 85.765 54.400,85.600 55.792,85.600 57.776 C 85.600 59.633,85.442 61.251,85.249 61.370 C 85.055 61.489,84.870 63.063,84.837 64.866 C 84.805 66.669,84.623 68.337,84.434 68.572 C 84.245 68.808,83.990 69.720,83.868 70.600 C 83.469 73.466,83.116 74.800,82.755 74.800 C 82.560 74.800,82.400 75.340,82.400 76.000 C 82.400 76.660,82.220 77.200,82.000 77.200 C 81.780 77.200,81.600 77.560,81.600 78.000 C 81.600 78.440,81.420 78.800,81.200 78.800 C 80.980 78.800,80.800 79.147,80.800 79.571 C 80.800 80.326,78.878 81.600,77.739 81.600 C 77.442 81.600,77.200 81.780,77.200 82.000 C 77.200 82.220,76.660 82.400,76.000 82.400 C 75.340 82.400,74.800 82.580,74.800 82.800 C 74.800 83.020,74.260 83.200,73.600 83.200 C 72.940 83.200,72.400 83.380,72.400 83.600 C 72.400 83.820,71.680 84.000,70.800 84.000 C 69.920 84.000,69.200 84.180,69.200 84.400 C 69.200 84.631,67.941 84.800,66.224 84.800 C 64.587 84.800,63.136 84.980,63.000 85.200 C 62.861 85.425,60.929 85.600,58.576 85.600 C 56.059 85.600,54.400 85.759,54.400 86.000 C 54.400 86.225,53.275 86.400,51.824 86.400 C 50.407 86.400,49.136 86.580,49.000 86.800 C 48.864 87.020,47.964 87.200,47.000 87.200 C 46.036 87.200,45.136 87.380,45.000 87.600 C 44.864 87.820,44.133 88.000,43.376 88.000 C 42.619 88.000,42.000 88.180,42.000 88.400 C 42.000 88.620,41.561 88.800,41.024 88.800 C 40.487 88.800,39.936 88.980,39.800 89.200 C 39.664 89.420,39.023 89.600,38.376 89.600 C 37.729 89.600,37.200 89.780,37.200 90.000 C 37.200 90.220,36.840 90.400,36.400 90.400 C 35.960 90.400,35.600 90.580,35.600 90.800 C 35.600 91.020,35.280 91.200,34.888 91.200 C 34.497 91.200,33.917 91.560,33.600 92.000 C 33.283 92.440,32.780 92.800,32.483 92.800 C 32.186 92.800,31.641 93.081,31.271 93.424 C 28.574 95.930,27.200 97.434,27.200 97.880 C 27.200 98.166,27.020 98.400,26.800 98.400 C 26.580 98.400,26.400 98.670,26.400 99.000 C 26.400 99.330,26.220 99.600,26.000 99.600 C 25.780 99.600,25.600 99.960,25.600 100.400 C 25.600 100.840,25.420 101.200,25.200 101.200 C 24.980 101.200,24.800 101.740,24.800 102.400 C 24.800 103.060,24.620 103.600,24.400 103.600 C 24.180 103.600,24.000 104.500,24.000 105.600 C 24.000 106.700,23.820 107.600,23.600 107.600 C 23.369 107.600,23.200 108.859,23.200 110.576 C 23.200 112.213,23.380 113.664,23.600 113.800 C 23.820 113.936,24.000 115.027,24.000 116.224 C 24.000 117.421,24.180 118.400,24.400 118.400 C 24.620 118.400,24.800 119.120,24.800 120.000 C 24.800 120.880,24.980 121.600,25.200 121.600 C 25.420 121.600,25.600 122.140,25.600 122.800 C 25.600 123.460,25.780 124.000,26.000 124.000 C 26.220 124.000,26.400 124.450,26.400 125.000 C 26.400 125.550,26.557 126.000,26.748 126.000 C 26.940 126.000,27.216 126.900,27.362 128.000 C 27.508 129.100,27.801 130.000,28.014 130.000 C 28.226 130.000,28.400 130.439,28.400 130.976 C 28.400 131.513,28.580 132.064,28.800 132.200 C 29.020 132.336,29.200 132.797,29.200 133.224 C 29.200 133.651,29.380 134.000,29.600 134.000 C 29.820 134.000,30.000 134.360,30.000 134.800 C 30.000 135.240,30.180 135.600,30.400 135.600 C 30.620 135.600,30.800 135.834,30.800 136.120 C 30.800 136.856,31.741 138.793,32.100 138.797 C 32.265 138.799,32.400 139.149,32.400 139.576 C 32.400 140.003,32.580 140.464,32.800 140.600 C 33.020 140.736,33.200 141.197,33.200 141.624 C 33.200 142.051,33.380 142.400,33.600 142.400 C 33.820 142.400,34.000 142.839,34.000 143.376 C 34.000 143.913,34.180 144.464,34.400 144.600 C 34.620 144.736,34.800 145.377,34.800 146.024 C 34.800 146.671,34.980 147.200,35.200 147.200 C 35.420 147.200,35.600 147.905,35.600 148.767 C 35.600 149.628,35.775 150.393,35.989 150.467 C 36.477 150.634,36.625 157.200,36.149 157.546 C 35.956 157.686,35.544 158.295,35.232 158.900 C 34.920 159.505,34.521 160.000,34.346 160.000 C 34.170 160.000,33.397 160.630,32.627 161.400 C 31.857 162.170,31.086 162.805,30.913 162.811 C 30.741 162.818,29.700 163.637,28.600 164.631 C 24.842 168.030,24.386 168.400,23.954 168.400 C 23.716 168.400,23.017 168.940,22.400 169.600 C 21.783 170.260,21.080 170.800,20.836 170.800 C 20.592 170.800,19.828 171.340,19.137 172.000 C 18.446 172.660,17.710 173.200,17.501 173.200 C 17.292 173.200,16.617 173.740,16.000 174.400 C 15.383 175.060,14.681 175.600,14.440 175.600 C 14.198 175.600,14.000 175.780,14.000 176.000 C 14.000 176.220,13.793 176.400,13.539 176.400 C 12.918 176.400,4.748 184.751,4.032 186.117 C 3.720 186.713,3.315 187.200,3.132 187.200 C 2.950 187.200,2.800 187.560,2.800 188.000 C 2.800 188.440,2.665 188.801,2.500 188.803 C 2.149 188.807,1.200 190.737,1.200 191.446 C 1.200 191.714,0.975 192.008,0.700 192.100 C -0.688 192.562,0.283 209.600,1.698 209.600 C 1.864 209.600,2.000 209.960,2.000 210.400 C 2.000 210.840,2.180 211.200,2.400 211.200 C 2.620 211.200,2.800 211.520,2.800 211.912 C 2.800 212.303,3.160 212.883,3.600 213.200 C 4.040 213.517,4.400 213.997,4.400 214.267 C 4.400 214.537,6.290 216.696,8.600 219.066 C 10.910 221.435,12.800 223.259,12.800 223.118 C 12.800 222.977,13.327 223.343,13.971 223.931 C 16.626 226.355,17.193 226.800,17.625 226.800 C 17.875 226.800,18.583 227.340,19.200 228.000 C 19.817 228.660,20.537 229.200,20.800 229.200 C 21.063 229.200,21.783 229.740,22.400 230.400 C 23.017 231.060,23.769 231.600,24.072 231.600 C 24.375 231.600,24.883 231.960,25.200 232.400 C 25.517 232.840,26.017 233.200,26.312 233.200 C 26.606 233.200,26.736 233.380,26.600 233.600 C 26.464 233.820,26.618 234.000,26.943 234.000 C 27.268 234.000,27.593 234.142,27.667 234.315 C 27.740 234.488,28.601 235.253,29.579 236.015 C 31.958 237.868,35.600 241.482,35.600 241.991 C 35.600 242.216,35.780 242.400,36.000 242.400 C 36.220 242.400,36.400 242.681,36.400 243.024 C 36.400 243.367,36.550 243.555,36.733 243.441 C 36.917 243.328,37.067 243.497,37.067 243.818 C 37.067 244.138,36.917 244.400,36.733 244.400 C 36.550 244.400,36.400 245.570,36.400 247.000 C 36.400 248.467,36.226 249.600,36.000 249.600 C 35.780 249.600,35.600 250.320,35.600 251.200 C 35.600 252.080,35.420 252.800,35.200 252.800 C 34.980 252.800,34.800 253.329,34.800 253.976 C 34.800 254.623,34.620 255.264,34.400 255.400 C 34.180 255.536,34.000 256.087,34.000 256.624 C 34.000 257.161,33.820 257.600,33.600 257.600 C 33.380 257.600,33.200 257.845,33.200 258.145 C 33.200 258.444,32.480 260.089,31.600 261.800 C 30.720 263.511,30.000 265.156,30.000 265.455 C 30.000 265.755,29.853 266.000,29.672 266.000 C 29.492 266.000,29.100 266.900,28.800 268.000 C 28.500 269.100,28.114 270.000,27.941 270.000 C 27.769 270.000,27.508 270.900,27.362 272.000 C 27.216 273.100,26.940 274.000,26.748 274.000 C 26.557 274.000,26.400 274.439,26.400 274.976 C 26.400 275.513,26.220 276.064,26.000 276.200 C 25.780 276.336,25.600 276.887,25.600 277.424 C 25.600 277.961,25.420 278.400,25.200 278.400 C 24.980 278.400,24.800 279.120,24.800 280.000 C 24.800 280.880,24.620 281.600,24.400 281.600 C 24.180 281.600,24.000 282.579,24.000 283.776 C 24.000 284.973,23.820 286.064,23.600 286.200 C 23.380 286.336,23.200 287.787,23.200 289.424 C 23.200 291.141,23.369 292.400,23.600 292.400 C 23.820 292.400,24.000 293.300,24.000 294.400 C 24.000 295.500,24.180 296.400,24.400 296.400 C 24.620 296.400,24.800 296.940,24.800 297.600 C 24.800 298.260,24.980 298.800,25.200 298.800 C 25.420 298.800,25.600 299.120,25.600 299.512 C 25.600 299.903,25.960 300.483,26.400 300.800 C 26.840 301.117,27.200 301.661,27.200 302.009 C 27.200 303.036,31.390 306.990,33.579 308.029 C 34.690 308.557,35.600 309.126,35.600 309.294 C 35.600 309.462,36.140 309.600,36.800 309.600 C 37.460 309.600,38.000 309.780,38.000 310.000 C 38.000 310.220,38.349 310.400,38.776 310.400 C 39.203 310.400,39.664 310.580,39.800 310.800 C 39.936 311.020,40.667 311.200,41.424 311.200 C 42.181 311.200,42.800 311.380,42.800 311.600 C 42.800 311.820,43.329 312.000,43.976 312.000 C 44.623 312.000,45.264 312.180,45.400 312.400 C 45.536 312.620,46.526 312.800,47.600 312.800 C 48.674 312.800,49.664 312.980,49.800 313.200 C 49.936 313.420,51.207 313.600,52.624 313.600 C 54.075 313.600,55.200 313.775,55.200 314.000 C 55.200 314.242,56.907 314.400,59.520 314.400 C 62.422 314.400,64.017 314.564,64.379 314.900 C 64.816 315.306,64.858 315.288,64.600 314.800 C 64.342 314.312,64.384 314.294,64.821 314.700 C 65.118 314.975,66.213 315.200,67.256 315.200 C 68.299 315.200,69.264 315.380,69.400 315.600 C 69.536 315.820,70.179 316.000,70.829 316.000 C 71.479 316.000,72.323 316.168,72.705 316.373 C 73.087 316.579,74.255 316.978,75.300 317.261 C 76.345 317.543,77.200 317.915,77.200 318.087 C 77.200 318.259,77.442 318.400,77.739 318.400 C 78.938 318.400,80.630 319.640,81.126 320.882 C 81.416 321.607,81.821 322.513,82.026 322.895 C 82.232 323.277,82.400 323.952,82.400 324.395 C 82.400 324.838,82.580 325.200,82.800 325.200 C 83.020 325.200,83.200 325.740,83.200 326.400 C 83.200 327.060,83.380 327.600,83.600 327.600 C 83.820 327.600,84.000 328.399,84.000 329.376 C 84.000 330.353,84.180 331.264,84.400 331.400 C 84.620 331.536,84.800 333.066,84.800 334.800 C 84.800 336.534,84.980 338.064,85.200 338.200 C 85.420 338.336,85.600 340.057,85.600 342.024 C 85.600 344.141,85.763 345.600,86.000 345.600 C 86.225 345.600,86.400 346.725,86.400 348.176 C 86.400 349.593,86.580 350.864,86.800 351.000 C 87.020 351.136,87.200 352.036,87.200 353.000 C 87.200 353.964,87.380 354.864,87.600 355.000 C 87.820 355.136,88.000 355.867,88.000 356.624 C 88.000 357.381,88.180 358.000,88.400 358.000 C 88.620 358.000,88.800 358.540,88.800 359.200 C 88.800 359.860,88.980 360.400,89.200 360.400 C 89.420 360.400,89.600 360.940,89.600 361.600 C 89.600 362.260,89.780 362.800,90.000 362.800 C 90.220 362.800,90.400 363.160,90.400 363.600 C 90.400 364.040,90.580 364.400,90.800 364.400 C 91.020 364.400,91.200 364.720,91.200 365.112 C 91.200 365.503,91.560 366.083,92.000 366.400 C 92.440 366.717,92.800 367.214,92.800 367.505 C 92.800 368.139,93.199 368.639,95.765 371.222 C 96.846 372.310,97.971 373.200,98.265 373.200 C 98.559 373.200,98.800 373.347,98.800 373.526 C 98.800 374.018,101.492 375.200,102.614 375.200 C 103.156 375.200,103.600 375.380,103.600 375.600 C 103.600 375.820,104.500 376.000,105.600 376.000 C 106.700 376.000,107.600 376.180,107.600 376.400 C 107.600 376.628,108.792 376.800,110.376 376.800 C 111.903 376.800,113.264 376.620,113.400 376.400 C 113.536 376.180,114.717 376.000,116.024 376.000 C 117.331 376.000,118.400 375.845,118.400 375.655 C 118.400 375.465,119.423 375.190,120.674 375.043 C 121.924 374.896,123.139 374.634,123.374 374.460 C 123.608 374.286,124.610 373.900,125.600 373.602 C 126.590 373.305,127.571 372.912,127.780 372.730 C 127.989 372.549,128.574 372.400,129.080 372.400 C 129.586 372.400,130.000 372.220,130.000 372.000 C 130.000 371.780,130.360 371.600,130.800 371.600 C 131.240 371.600,131.600 371.453,131.600 371.272 C 131.600 371.092,132.500 370.700,133.600 370.400 C 134.700 370.100,135.600 369.708,135.600 369.528 C 135.600 369.347,135.960 369.200,136.400 369.200 C 136.840 369.200,137.200 369.020,137.200 368.800 C 137.200 368.580,137.560 368.400,138.000 368.400 C 138.440 368.400,138.801 368.265,138.803 368.100 C 138.807 367.694,140.786 366.800,141.680 366.800 C 142.076 366.800,142.400 366.620,142.400 366.400 C 142.400 366.180,142.760 366.000,143.200 366.000 C 143.640 366.000,144.000 365.820,144.000 365.600 C 144.000 365.380,144.619 365.200,145.376 365.200 C 146.133 365.200,146.864 365.020,147.000 364.800 C 147.136 364.580,147.831 364.400,148.544 364.400 C 149.257 364.400,150.011 364.230,150.220 364.021 C 150.810 363.433,157.315 363.344,157.507 363.922 C 157.595 364.185,157.972 364.400,158.345 364.400 C 158.718 364.400,159.288 364.786,159.612 365.258 C 159.935 365.730,160.757 366.686,161.438 367.383 C 162.119 368.079,162.839 368.939,163.038 369.293 C 163.427 369.987,166.031 373.133,167.500 374.685 C 167.995 375.208,168.400 375.909,168.400 376.242 C 168.400 376.575,168.580 376.736,168.800 376.600 C 169.020 376.464,169.200 376.594,169.200 376.888 C 169.200 377.183,169.560 377.683,170.000 378.000 C 170.440 378.317,170.800 378.825,170.800 379.128 C 170.800 379.431,171.340 380.183,172.000 380.800 C 172.660 381.417,173.200 382.137,173.200 382.400 C 173.200 382.663,173.740 383.383,174.400 384.000 C 175.060 384.617,175.600 385.227,175.600 385.356 C 175.600 386.158,184.917 395.600,185.708 395.600 C 185.991 395.600,186.483 395.960,186.800 396.400 C 187.117 396.840,187.697 397.200,188.088 397.200 C 188.480 397.200,188.800 397.380,188.800 397.600 C 188.800 397.820,189.160 398.000,189.600 398.000 C 190.040 398.000,190.400 398.180,190.400 398.400 C 190.400 398.620,190.745 398.800,191.167 398.800 C 191.588 398.800,192.008 399.025,192.100 399.300 C 192.562 400.688,209.600 399.717,209.600 398.302 C 209.600 398.136,209.960 398.000,210.400 398.000 C 210.840 398.000,211.200 397.820,211.200 397.600 C 211.200 397.380,211.520 397.200,211.912 397.200 C 212.303 397.200,212.883 396.840,213.200 396.400 C 213.517 395.960,214.011 395.600,214.297 395.600 C 214.583 395.600,215.771 394.655,216.936 393.500 C 218.101 392.345,219.588 390.950,220.242 390.400 C 220.895 389.850,222.051 388.590,222.811 387.600 C 224.945 384.821,224.945 384.821,225.900 383.799 C 226.395 383.270,226.800 382.630,226.800 382.379 C 226.800 382.127,227.340 381.417,228.000 380.800 C 228.660 380.183,229.200 379.463,229.200 379.200 C 229.200 378.937,229.740 378.217,230.400 377.600 C 231.060 376.983,231.600 376.283,231.600 376.043 C 231.600 375.803,232.140 375.091,232.800 374.460 C 233.460 373.829,234.000 373.198,234.000 373.058 C 234.000 372.917,234.720 372.037,235.600 371.103 C 236.480 370.169,237.200 369.264,237.200 369.093 C 237.200 368.630,241.518 364.400,241.991 364.400 C 242.216 364.400,242.401 364.265,242.403 364.100 C 242.405 363.935,242.855 363.592,243.403 363.338 C 243.951 363.083,244.400 363.038,244.400 363.238 C 244.400 363.437,245.559 363.600,246.976 363.600 C 248.393 363.600,249.664 363.780,249.800 364.000 C 249.936 364.220,250.667 364.400,251.424 364.400 C 252.181 364.400,252.800 364.580,252.800 364.800 C 252.800 365.020,253.329 365.200,253.976 365.200 C 254.623 365.200,255.264 365.380,255.400 365.600 C 255.536 365.820,256.087 366.000,256.624 366.000 C 257.161 366.000,257.600 366.180,257.600 366.400 C 257.600 366.620,257.949 366.800,258.376 366.800 C 258.803 366.800,259.264 366.980,259.400 367.200 C 259.536 367.420,259.997 367.600,260.424 367.600 C 260.851 367.600,261.201 367.735,261.203 367.900 C 261.207 368.259,263.144 369.200,263.880 369.200 C 264.166 369.200,264.400 369.380,264.400 369.600 C 264.400 369.820,264.665 370.000,264.988 370.000 C 265.311 370.000,266.217 370.360,267.000 370.800 C 267.783 371.240,268.779 371.600,269.212 371.600 C 269.645 371.600,270.000 371.780,270.000 372.000 C 270.000 372.220,270.349 372.400,270.776 372.400 C 271.203 372.400,271.664 372.580,271.800 372.800 C 271.936 373.020,272.487 373.200,273.024 373.200 C 273.561 373.200,274.000 373.380,274.000 373.600 C 274.000 373.820,274.540 374.000,275.200 374.000 C 275.860 374.000,276.400 374.166,276.400 374.368 C 276.400 374.571,277.570 374.862,279.000 375.015 C 280.430 375.168,281.600 375.452,281.600 375.647 C 281.600 375.841,282.680 376.000,284.000 376.000 C 285.333 376.000,286.400 376.178,286.400 376.400 C 286.400 376.628,287.592 376.800,289.176 376.800 C 290.703 376.800,292.064 376.620,292.200 376.400 C 292.336 376.180,293.337 376.000,294.424 376.000 C 295.511 376.000,296.400 375.820,296.400 375.600 C 296.400 375.380,296.859 375.200,297.420 375.200 C 298.509 375.200,300.607 374.250,301.509 373.348 C 301.810 373.047,302.228 372.800,302.437 372.800 C 302.993 372.800,307.137 368.429,307.416 367.549 C 307.547 367.137,307.807 366.800,307.995 366.800 C 308.183 366.800,308.455 366.262,308.599 365.605 C 308.743 364.947,309.028 364.306,309.231 364.181 C 309.434 364.055,309.600 363.513,309.600 362.976 C 309.600 362.439,309.780 362.000,310.000 362.000 C 310.220 362.000,310.400 361.640,310.400 361.200 C 310.400 360.760,310.580 360.400,310.800 360.400 C 311.020 360.400,311.200 359.781,311.200 359.024 C 311.200 358.267,311.380 357.536,311.600 357.400 C 311.820 357.264,312.000 356.634,312.000 356.000 C 312.000 355.366,312.180 354.736,312.400 354.600 C 312.620 354.464,312.800 353.463,312.800 352.376 C 312.800 351.289,312.980 350.400,313.200 350.400 C 313.425 350.400,313.600 349.275,313.600 347.824 C 313.600 346.407,313.780 345.136,314.000 345.000 C 314.221 344.864,314.400 343.070,314.400 341.000 C 314.400 338.930,314.579 337.136,314.800 337.000 C 315.020 336.864,315.200 335.413,315.200 333.776 C 315.200 332.059,315.369 330.800,315.600 330.800 C 315.820 330.800,316.000 330.080,316.000 329.200 C 316.000 328.320,316.180 327.600,316.400 327.600 C 316.620 327.600,316.800 326.959,316.800 326.176 C 316.800 325.329,316.962 324.853,317.200 325.000 C 317.420 325.136,317.600 324.912,317.600 324.502 C 317.600 321.680,321.666 317.600,324.479 317.600 C 324.875 317.600,325.200 317.420,325.200 317.200 C 325.200 316.980,325.740 316.800,326.400 316.800 C 327.060 316.800,327.600 316.620,327.600 316.400 C 327.600 316.180,328.399 316.000,329.376 316.000 C 330.353 316.000,331.264 315.820,331.400 315.600 C 331.536 315.380,333.167 315.200,335.024 315.200 C 337.008 315.200,338.400 315.035,338.400 314.800 C 338.400 314.563,339.867 314.400,342.000 314.400 C 344.133 314.400,345.600 314.237,345.600 314.000 C 345.600 313.771,346.800 313.600,348.400 313.600 C 350.000 313.600,351.200 313.429,351.200 313.200 C 351.200 312.980,351.999 312.800,352.976 312.800 C 353.953 312.800,354.864 312.620,355.000 312.400 C 355.136 312.180,355.867 312.000,356.624 312.000 C 357.381 312.000,358.000 311.820,358.000 311.600 C 358.000 311.380,358.540 311.200,359.200 311.200 C 359.860 311.200,360.400 311.020,360.400 310.800 C 360.400 310.580,360.940 310.400,361.600 310.400 C 362.260 310.400,362.800 310.220,362.800 310.000 C 362.800 309.780,363.160 309.600,363.600 309.600 C 364.040 309.600,364.400 309.420,364.400 309.200 C 364.400 308.980,364.747 308.800,365.171 308.800 C 365.596 308.800,366.213 308.530,366.543 308.200 C 366.873 307.870,367.307 307.600,367.508 307.600 C 368.123 307.600,373.200 302.416,373.200 301.789 C 373.200 301.465,373.347 301.200,373.526 301.200 C 374.018 301.200,375.200 298.508,375.200 297.386 C 375.200 296.844,375.380 296.400,375.600 296.400 C 375.820 296.400,376.000 295.511,376.000 294.424 C 376.000 293.337,376.180 292.336,376.400 292.200 C 376.907 291.886,376.927 287.488,376.423 286.980 C 376.216 286.771,376.006 285.475,375.957 284.100 C 375.909 282.725,375.743 281.600,375.589 281.600 C 375.436 281.600,375.190 280.577,375.043 279.326 C 374.896 278.076,374.634 276.861,374.460 276.626 C 374.286 276.392,373.900 275.390,373.602 274.400 C 373.305 273.410,372.912 272.429,372.730 272.220 C 372.549 272.011,372.400 271.426,372.400 270.920 C 372.400 270.414,372.220 270.000,372.000 270.000 C 371.780 270.000,371.600 269.640,371.600 269.200 C 371.600 268.760,371.420 268.400,371.200 268.400 C 370.980 268.400,370.800 267.961,370.800 267.424 C 370.800 266.887,370.620 266.336,370.400 266.200 C 370.180 266.064,370.000 265.603,370.000 265.176 C 370.000 264.749,369.820 264.400,369.600 264.400 C 369.380 264.400,369.200 264.040,369.200 263.600 C 369.200 263.160,369.054 262.800,368.875 262.800 C 368.696 262.800,368.302 262.170,368.000 261.400 C 367.698 260.630,367.304 260.000,367.125 260.000 C 366.946 260.000,366.800 259.460,366.800 258.800 C 366.800 258.140,366.620 257.600,366.400 257.600 C 366.180 257.600,366.000 257.240,366.000 256.800 C 366.000 256.360,365.820 256.000,365.600 256.000 C 365.380 256.000,365.200 255.381,365.200 254.624 C 365.200 253.867,365.020 253.136,364.800 253.000 C 364.580 252.864,364.400 252.144,364.400 251.400 C 364.400 250.656,364.220 249.936,364.000 249.800 C 363.780 249.664,363.600 248.393,363.600 246.976 C 363.600 245.559,363.437 244.400,363.238 244.400 C 363.038 244.400,363.083 243.951,363.338 243.403 C 363.592 242.855,363.935 242.405,364.100 242.403 C 364.265 242.401,364.400 242.216,364.400 241.991 C 364.400 241.457,368.208 237.664,370.000 236.414 C 370.770 235.877,371.691 235.114,372.047 234.719 C 372.403 234.324,372.833 234.000,373.004 234.000 C 373.174 234.000,373.829 233.460,374.460 232.800 C 375.091 232.140,375.803 231.600,376.043 231.600 C 376.283 231.600,376.983 231.060,377.600 230.400 C 378.217 229.740,378.937 229.200,379.200 229.200 C 379.463 229.200,380.175 228.669,380.782 228.019 C 381.389 227.370,382.127 226.785,382.422 226.719 C 382.717 226.654,383.328 226.286,383.779 225.903 C 384.231 225.520,385.680 224.362,387.000 223.329 C 388.320 222.296,389.850 220.934,390.400 220.302 C 390.950 219.669,392.345 218.177,393.500 216.985 C 394.655 215.793,395.600 214.583,395.600 214.297 C 395.600 214.011,395.960 213.517,396.400 213.200 C 396.840 212.883,397.200 212.303,397.200 211.912 C 397.200 211.520,397.380 211.200,397.600 211.200 C 397.820 211.200,398.000 210.840,398.000 210.400 C 398.000 209.960,398.136 209.600,398.302 209.600 C 399.717 209.600,400.688 192.562,399.300 192.100 C 399.025 192.008,398.800 191.714,398.800 191.446 C 398.800 190.737,397.851 188.807,397.500 188.803 C 397.335 188.801,397.200 188.480,397.200 188.088 C 397.200 187.697,396.840 187.117,396.400 186.800 C 395.960 186.483,395.600 185.992,395.600 185.709 C 395.600 185.050,387.131 176.400,386.485 176.400 C 386.218 176.400,386.000 176.220,386.000 176.000 C 386.000 175.780,385.802 175.600,385.560 175.600 C 385.319 175.600,384.617 175.060,384.000 174.400 C 383.383 173.740,382.663 173.200,382.400 173.200 C 382.137 173.200,381.417 172.660,380.800 172.000 C 380.183 171.340,379.463 170.800,379.200 170.800 C 378.937 170.800,378.217 170.260,377.600 169.600 C 376.983 168.940,376.283 168.400,376.043 168.400 C 375.803 168.400,375.091 167.860,374.460 167.200 C 373.829 166.540,373.198 166.000,373.058 166.000 C 372.917 166.000,372.037 165.280,371.103 164.400 C 370.169 163.520,369.262 162.800,369.089 162.800 C 368.915 162.800,368.175 162.215,367.445 161.500 C 366.714 160.785,365.730 159.935,365.258 159.612 C 364.786 159.288,364.400 158.693,364.400 158.288 C 364.400 157.884,364.220 157.664,364.000 157.800 C 363.780 157.936,363.600 157.692,363.600 157.257 C 363.600 156.822,363.375 156.362,363.100 156.233 C 362.700 156.047,362.700 155.953,363.100 155.767 C 363.424 155.616,363.600 154.629,363.600 152.967 C 363.600 151.522,363.775 150.400,364.000 150.400 C 364.220 150.400,364.400 149.768,364.400 148.995 C 364.400 148.222,364.568 147.277,364.773 146.895 C 364.979 146.513,365.378 145.345,365.661 144.300 C 365.943 143.255,366.315 142.400,366.487 142.400 C 366.659 142.400,366.800 142.051,366.800 141.624 C 366.800 141.197,366.980 140.736,367.200 140.600 C 367.420 140.464,367.600 140.003,367.600 139.576 C 367.600 139.149,367.735 138.799,367.900 138.797 C 368.259 138.793,369.200 136.856,369.200 136.120 C 369.200 135.834,369.380 135.600,369.600 135.600 C 369.820 135.600,370.000 135.240,370.000 134.800 C 370.000 134.360,370.180 134.000,370.400 134.000 C 370.620 134.000,370.800 133.651,370.800 133.224 C 370.800 132.797,370.980 132.336,371.200 132.200 C 371.420 132.064,371.600 131.513,371.600 130.976 C 371.600 130.439,371.741 130.000,371.913 130.000 C 372.085 130.000,372.475 129.145,372.780 128.100 C 373.314 126.271,373.520 125.750,374.407 123.995 C 374.630 123.552,374.926 122.112,375.064 120.795 C 375.201 119.478,375.468 118.400,375.657 118.400 C 375.846 118.400,376.000 117.320,376.000 116.000 C 376.000 114.667,376.178 113.600,376.400 113.600 C 376.628 113.600,376.800 112.408,376.800 110.824 C 376.800 109.297,376.620 107.936,376.400 107.800 C 376.180 107.664,376.000 106.663,376.000 105.576 C 376.000 104.489,375.844 103.600,375.652 103.600 C 375.461 103.600,375.207 102.998,375.088 102.263 C 374.649 99.559,369.127 92.800,367.357 92.800 C 367.051 92.800,366.800 92.620,366.800 92.400 C 366.800 92.180,366.440 92.000,366.000 92.000 C 365.560 92.000,365.199 91.865,365.197 91.700 C 365.193 91.341,363.256 90.400,362.520 90.400 C 362.234 90.400,362.000 90.220,362.000 90.000 C 362.000 89.780,361.651 89.600,361.224 89.600 C 360.797 89.600,360.336 89.420,360.200 89.200 C 360.064 88.980,359.434 88.800,358.800 88.800 C 358.166 88.800,357.536 88.620,357.400 88.400 C 357.264 88.180,356.544 88.000,355.800 88.000 C 355.056 88.000,354.336 87.820,354.200 87.600 C 354.064 87.380,353.164 87.200,352.200 87.200 C 351.236 87.200,350.336 87.020,350.200 86.800 C 350.064 86.580,348.693 86.400,347.153 86.400 C 345.388 86.400,344.444 86.252,344.600 86.000 C 344.759 85.743,343.279 85.600,340.447 85.600 C 337.945 85.600,335.941 85.427,335.800 85.200 C 335.664 84.980,334.494 84.800,333.200 84.800 C 331.906 84.800,330.736 84.620,330.600 84.400 C 330.464 84.180,329.744 84.000,329.000 84.000 C 328.256 84.000,327.536 83.820,327.400 83.600 C 327.264 83.380,326.623 83.200,325.976 83.200 C 325.329 83.200,324.800 83.020,324.800 82.800 C 324.800 82.580,324.350 82.400,323.800 82.400 C 323.250 82.400,322.800 82.220,322.800 82.000 C 322.800 81.780,322.558 81.600,322.261 81.600 C 321.122 81.600,319.200 80.326,319.200 79.571 C 319.200 79.147,319.020 78.800,318.800 78.800 C 318.580 78.800,318.400 78.440,318.400 78.000 C 318.400 77.560,318.220 77.200,318.000 77.200 C 317.780 77.200,317.600 76.660,317.600 76.000 C 317.600 75.340,317.420 74.800,317.200 74.800 C 316.980 74.800,316.800 74.260,316.800 73.600 C 316.800 72.940,316.620 72.400,316.400 72.400 C 316.180 72.400,316.000 71.680,316.000 70.800 C 316.000 69.920,315.820 69.200,315.600 69.200 C 315.365 69.200,315.200 67.808,315.200 65.824 C 315.200 63.967,315.020 62.336,314.800 62.200 C 314.579 62.063,314.400 60.263,314.400 58.176 C 314.400 55.925,314.238 54.400,314.000 54.400 C 313.775 54.400,313.600 53.275,313.600 51.824 C 313.600 50.407,313.420 49.136,313.200 49.000 C 312.980 48.864,312.800 47.953,312.800 46.976 C 312.800 45.999,312.620 45.200,312.400 45.200 C 312.180 45.200,312.000 44.480,312.000 43.600 C 312.000 42.720,311.820 42.000,311.600 42.000 C 311.380 42.000,311.200 41.460,311.200 40.800 C 311.200 40.140,311.020 39.600,310.800 39.600 C 310.580 39.600,310.400 39.161,310.400 38.624 C 310.400 38.087,310.220 37.536,310.000 37.400 C 309.780 37.264,309.600 36.803,309.600 36.376 C 309.600 35.949,309.420 35.600,309.200 35.600 C 308.980 35.600,308.800 35.268,308.800 34.861 C 308.800 34.455,308.440 33.707,308.000 33.200 C 307.560 32.693,307.200 32.144,307.200 31.982 C 307.200 31.459,302.661 27.200,302.104 27.200 C 301.809 27.200,301.180 26.840,300.708 26.400 C 300.236 25.960,299.523 25.600,299.125 25.600 C 298.726 25.600,298.400 25.420,298.400 25.200 C 298.400 24.980,297.849 24.800,297.176 24.800 C 296.463 24.800,296.056 24.633,296.200 24.400 C 296.352 24.153,295.671 24.000,294.424 24.000 C 293.311 24.000,292.400 23.820,292.400 23.600 C 292.400 23.369,291.133 23.200,289.400 23.200 C 287.667 23.200,286.400 23.369,286.400 23.600 C 286.400 23.822,285.341 24.000,284.024 24.000 C 282.717 24.000,281.536 24.180,281.400 24.400 C 281.264 24.620,280.533 24.800,279.776 24.800 C 279.019 24.800,278.400 24.980,278.400 25.200 C 278.400 25.420,277.871 25.600,277.224 25.600 C 276.577 25.600,275.936 25.780,275.800 26.000 C 275.664 26.220,275.203 26.400,274.776 26.400 C 274.349 26.400,274.000 26.557,274.000 26.748 C 274.000 26.940,273.100 27.216,272.000 27.362 C 270.900 27.508,270.000 27.769,270.000 27.941 C 270.000 28.114,269.100 28.500,268.000 28.800 C 266.900 29.100,266.000 29.492,266.000 29.672 C 266.000 29.853,265.640 30.000,265.200 30.000 C 264.760 30.000,264.400 30.180,264.400 30.400 C 264.400 30.620,264.166 30.800,263.880 30.800 C 263.191 30.800,261.207 31.731,261.203 32.056 C 261.201 32.197,260.390 32.551,259.400 32.843 C 258.410 33.135,257.600 33.515,257.600 33.687 C 257.600 33.859,257.161 34.000,256.624 34.000 C 256.087 34.000,255.536 34.180,255.400 34.400 C 255.264 34.620,254.623 34.800,253.976 34.800 C 253.329 34.800,252.800 34.980,252.800 35.200 C 252.800 35.420,252.080 35.600,251.200 35.600 C 250.320 35.600,249.600 35.780,249.600 36.000 C 249.600 36.225,248.478 36.400,247.033 36.400 C 245.354 36.400,244.397 36.573,244.265 36.900 C 244.104 37.300,244.057 37.300,244.032 36.900 C 244.014 36.625,243.640 36.400,243.200 36.400 C 242.760 36.400,242.400 36.220,242.400 36.000 C 242.400 35.780,242.215 35.600,241.989 35.600 C 241.457 35.600,238.467 32.598,237.210 30.800 C 236.672 30.030,235.729 28.923,235.115 28.340 C 234.502 27.756,234.000 27.153,234.000 27.000 C 234.000 26.847,233.460 26.217,232.800 25.600 C 232.140 24.983,231.600 24.280,231.600 24.036 C 231.600 23.792,231.060 23.028,230.400 22.337 C 229.740 21.646,229.200 20.926,229.200 20.737 C 229.200 20.548,228.660 19.828,228.000 19.137 C 227.340 18.446,226.800 17.638,226.800 17.341 C 226.800 17.043,226.622 16.800,226.405 16.800 C 226.188 16.800,225.534 16.035,224.951 15.100 C 223.794 13.241,215.851 5.200,215.173 5.200 C 214.942 5.200,214.864 5.020,215.000 4.800 C 215.136 4.580,214.916 4.400,214.512 4.400 C 214.107 4.400,213.517 4.040,213.200 3.600 C 212.883 3.160,212.303 2.800,211.912 2.800 C 211.520 2.800,211.200 2.620,211.200 2.400 C 211.200 2.180,210.840 2.000,210.400 2.000 C 209.960 2.000,209.599 1.865,209.597 1.700 C 209.584 0.505,197.766 -0.521,193.100 0.267 M98.200 156.400 C 98.336 156.620,98.789 156.800,99.207 156.800 C 100.368 156.800,102.676 159.197,106.522 164.400 C 107.580 165.830,108.660 167.274,108.922 167.609 C 109.185 167.944,110.210 169.294,111.199 170.609 C 112.188 171.924,113.097 173.090,113.218 173.200 C 113.339 173.310,113.877 174.030,114.414 174.800 C 114.950 175.570,115.605 176.470,115.869 176.800 C 116.133 177.130,118.080 179.740,120.196 182.600 C 122.312 185.460,124.261 188.070,124.527 188.400 C 124.794 188.730,125.450 189.630,125.986 190.400 C 126.523 191.170,127.069 191.890,127.200 192.000 C 127.331 192.110,127.874 192.830,128.406 193.600 C 128.938 194.370,129.560 195.197,129.787 195.437 C 130.014 195.677,132.090 198.428,134.400 201.550 L 138.600 207.226 138.697 185.113 C 138.793 163.254,138.804 162.980,139.669 161.283 C 140.667 159.324,142.252 157.600,143.055 157.600 C 143.355 157.600,143.600 157.420,143.600 157.200 C 143.600 156.980,143.949 156.800,144.376 156.800 C 144.803 156.800,145.264 156.620,145.400 156.400 C 145.536 156.180,146.616 156.000,147.800 156.000 C 148.984 156.000,150.064 156.180,150.200 156.400 C 150.336 156.620,150.808 156.800,151.250 156.800 C 152.439 156.800,156.220 160.760,156.612 162.416 C 157.162 164.742,157.313 234.728,156.771 236.600 C 155.790 239.996,154.326 241.783,151.396 243.160 C 149.550 244.028,146.519 244.269,145.295 243.647 C 144.913 243.452,144.132 243.077,143.561 242.812 C 142.157 242.161,140.759 240.886,139.600 239.200 C 139.071 238.430,138.531 237.710,138.399 237.600 C 138.268 237.490,136.238 234.790,133.888 231.600 C 131.538 228.410,129.472 225.620,129.297 225.400 C 129.122 225.180,128.542 224.370,128.008 223.600 C 127.475 222.830,126.931 222.110,126.800 222.000 C 126.669 221.890,126.126 221.170,125.594 220.400 C 125.062 219.630,124.440 218.804,124.213 218.563 C 123.730 218.053,123.613 217.897,117.012 209.000 C 114.237 205.260,111.747 201.930,111.478 201.600 C 111.209 201.270,110.550 200.370,110.014 199.600 C 109.477 198.830,108.931 198.110,108.800 198.000 C 108.669 197.890,108.125 197.170,107.592 196.400 C 107.059 195.630,106.213 194.552,105.711 194.004 L 104.800 193.008 104.800 214.558 C 104.800 230.416,104.670 236.542,104.309 237.754 C 103.749 239.633,100.408 243.200,99.208 243.200 C 98.789 243.200,98.336 243.380,98.200 243.600 C 97.664 244.468,91.200 243.639,91.200 242.703 C 91.200 242.536,91.018 242.400,90.797 242.400 C 90.170 242.400,88.000 240.331,88.000 239.734 C 88.000 239.440,87.864 239.200,87.697 239.200 C 86.020 239.200,85.599 165.295,87.256 161.771 C 89.191 157.655,96.698 153.970,98.200 156.400 M219.800 156.400 C 219.936 156.620,220.408 156.800,220.850 156.800 C 222.064 156.800,225.828 160.766,226.180 162.416 C 226.731 165.003,226.345 169.200,225.555 169.200 C 225.360 169.200,225.200 169.449,225.200 169.753 C 225.200 170.592,222.894 172.668,220.945 173.584 C 219.302 174.356,218.465 174.400,205.404 174.400 L 191.600 174.400 191.600 182.562 L 191.600 190.724 205.900 190.875 C 220.019 191.024,220.220 191.038,221.792 191.958 C 223.530 192.975,225.199 194.710,225.200 195.500 C 225.200 195.775,225.360 196.000,225.555 196.000 C 225.990 196.000,226.475 198.109,226.475 200.000 C 226.475 201.891,225.990 204.000,225.555 204.000 C 225.360 204.000,225.200 204.225,225.200 204.500 C 225.199 205.288,223.532 207.023,221.792 208.047 C 220.217 208.974,220.051 208.985,205.900 209.126 L 191.600 209.269 191.600 217.435 L 191.600 225.600 205.576 225.600 C 214.463 225.600,219.643 225.746,219.800 226.000 C 219.936 226.220,220.408 226.400,220.850 226.400 C 222.064 226.400,225.828 230.366,226.180 232.016 C 226.731 234.603,226.345 238.800,225.555 238.800 C 225.360 238.800,225.200 239.055,225.200 239.366 C 225.200 240.139,221.661 243.200,220.767 243.200 C 220.371 243.200,219.936 243.380,219.800 243.600 C 219.641 243.858,212.604 244.000,200.000 244.000 C 187.396 244.000,180.359 243.858,180.200 243.600 C 180.064 243.380,179.607 243.200,179.185 243.200 C 178.046 243.200,174.164 239.137,173.780 237.543 C 173.602 236.804,173.456 219.910,173.456 200.000 C 173.456 180.090,173.602 163.196,173.780 162.457 C 174.164 160.863,178.046 156.800,179.185 156.800 C 179.607 156.800,180.064 156.620,180.200 156.400 C 180.359 156.142,187.396 156.000,200.000 156.000 C 212.604 156.000,219.641 156.142,219.800 156.400 M254.705 156.353 C 255.087 156.548,255.868 156.923,256.439 157.188 C 258.737 158.254,261.200 161.681,261.200 163.814 C 261.200 164.330,261.380 164.864,261.600 165.000 C 261.820 165.136,262.000 165.856,262.000 166.600 C 262.000 167.344,262.160 168.052,262.356 168.173 C 262.551 168.294,262.808 168.979,262.927 169.696 C 263.045 170.413,263.327 171.720,263.553 172.600 C 263.779 173.480,264.143 174.920,264.363 175.800 C 264.583 176.680,264.944 178.120,265.164 179.000 C 265.384 179.880,265.676 181.140,265.812 181.800 C 265.949 182.460,266.214 183.360,266.403 183.800 C 266.591 184.240,266.829 185.140,266.930 185.800 C 267.414 188.940,270.647 200.583,271.000 200.458 C 271.220 200.380,271.672 199.448,272.004 198.387 C 272.336 197.327,272.741 196.326,272.904 196.163 C 273.067 196.000,273.200 195.357,273.200 194.733 C 273.200 194.110,273.380 193.600,273.600 193.600 C 273.820 193.600,274.000 193.161,274.000 192.624 C 274.000 192.087,274.180 191.536,274.400 191.400 C 274.620 191.264,274.800 190.724,274.800 190.200 C 274.800 189.676,274.980 189.136,275.200 189.000 C 275.420 188.864,275.600 188.324,275.600 187.800 C 275.600 187.276,275.780 186.736,276.000 186.600 C 276.220 186.464,276.400 186.001,276.400 185.571 C 276.400 185.141,276.562 184.477,276.761 184.095 C 276.960 183.713,277.353 182.590,277.636 181.600 C 278.459 178.715,280.373 176.268,282.600 175.253 C 283.260 174.953,284.113 174.548,284.495 174.353 C 284.877 174.159,286.004 174.000,287.000 174.000 C 287.996 174.000,289.123 174.159,289.505 174.353 C 289.887 174.548,290.692 174.936,291.293 175.217 C 293.013 176.021,295.600 178.761,295.600 179.779 C 295.600 180.095,295.780 180.464,296.000 180.600 C 296.220 180.736,296.400 181.276,296.400 181.800 C 296.400 182.324,296.580 182.864,296.800 183.000 C 297.020 183.136,297.200 183.676,297.200 184.200 C 297.200 184.724,297.380 185.264,297.600 185.400 C 297.820 185.536,298.000 186.051,298.000 186.544 C 298.000 187.037,298.147 187.611,298.328 187.820 C 298.508 188.029,299.616 191.118,300.791 194.685 C 302.813 200.828,303.600 202.205,303.600 199.600 C 303.600 198.966,303.780 198.336,304.000 198.200 C 304.220 198.064,304.400 197.344,304.400 196.600 C 304.400 195.856,304.580 195.136,304.800 195.000 C 305.020 194.864,305.200 194.144,305.200 193.400 C 305.200 192.656,305.380 191.936,305.600 191.800 C 305.820 191.664,306.000 190.944,306.000 190.200 C 306.000 189.456,306.180 188.736,306.400 188.600 C 306.620 188.464,306.800 187.744,306.800 187.000 C 306.800 186.256,306.960 185.548,307.156 185.427 C 307.492 185.220,307.727 184.209,308.257 180.700 C 308.382 179.875,308.645 179.200,308.842 179.200 C 309.039 179.200,309.200 178.581,309.200 177.824 C 309.200 177.067,309.361 176.348,309.558 176.226 C 309.755 176.105,310.010 175.329,310.125 174.503 C 310.240 173.676,310.543 172.190,310.796 171.200 C 311.050 170.210,311.355 168.813,311.473 168.096 C 311.592 167.379,311.849 166.694,312.044 166.573 C 312.240 166.452,312.400 165.829,312.400 165.188 C 312.400 162.372,314.969 158.390,317.561 157.188 C 318.132 156.923,318.913 156.548,319.295 156.353 C 320.243 155.871,323.894 155.906,324.200 156.400 C 324.336 156.620,324.797 156.800,325.224 156.800 C 325.651 156.800,326.000 156.980,326.000 157.200 C 326.000 157.420,326.245 157.600,326.545 157.600 C 329.111 157.600,332.509 167.297,330.400 168.600 C 330.180 168.736,330.000 169.456,330.000 170.200 C 330.000 170.944,329.820 171.664,329.600 171.800 C 329.380 171.936,329.200 172.656,329.200 173.400 C 329.200 174.144,329.020 174.864,328.800 175.000 C 328.580 175.136,328.400 175.856,328.400 176.600 C 328.400 177.344,328.220 178.064,328.000 178.200 C 327.780 178.336,327.600 179.056,327.600 179.800 C 327.600 180.544,327.420 181.264,327.200 181.400 C 326.980 181.536,326.800 182.256,326.800 183.000 C 326.800 183.744,326.620 184.464,326.400 184.600 C 326.180 184.736,326.000 185.467,326.000 186.224 C 326.000 186.981,325.820 187.600,325.600 187.600 C 325.380 187.600,325.200 188.082,325.200 188.672 C 325.200 189.261,325.032 190.296,324.827 190.972 C 324.622 191.647,324.262 192.965,324.027 193.900 C 323.792 194.835,323.426 196.275,323.213 197.100 C 323.000 197.925,322.367 200.580,321.806 203.000 C 321.245 205.420,320.451 208.660,320.042 210.200 C 319.634 211.740,319.085 213.900,318.824 215.000 C 318.182 217.706,317.749 219.475,317.233 221.500 C 316.995 222.435,316.635 223.875,316.433 224.700 C 315.734 227.556,315.144 229.805,314.773 231.028 C 314.568 231.704,314.400 232.638,314.400 233.105 C 314.400 233.571,314.220 234.064,314.000 234.200 C 313.780 234.336,313.600 235.056,313.600 235.800 C 313.600 236.544,313.420 237.264,313.200 237.400 C 312.980 237.536,312.800 237.997,312.800 238.424 C 312.800 238.851,312.620 239.200,312.400 239.200 C 312.180 239.200,312.000 239.436,312.000 239.725 C 312.000 240.371,309.935 242.400,309.278 242.400 C 309.015 242.400,308.800 242.580,308.800 242.800 C 308.800 243.020,308.451 243.200,308.024 243.200 C 307.597 243.200,307.136 243.380,307.000 243.600 C 306.864 243.820,305.694 244.000,304.400 244.000 C 303.106 244.000,301.936 243.820,301.800 243.600 C 301.664 243.380,301.203 243.200,300.776 243.200 C 300.349 243.200,300.000 243.020,300.000 242.800 C 300.000 242.580,299.744 242.400,299.431 242.400 C 298.700 242.400,296.000 239.259,296.000 238.408 C 296.000 238.052,295.852 237.589,295.672 237.380 C 295.492 237.171,294.933 235.650,294.431 234.000 C 293.929 232.350,293.356 230.687,293.159 230.305 C 292.962 229.923,292.800 229.284,292.800 228.885 C 292.800 228.486,292.652 227.989,292.472 227.780 C 292.292 227.571,291.719 226.050,291.200 224.400 C 290.681 222.750,290.108 221.229,289.928 221.020 C 289.748 220.811,289.600 220.237,289.600 219.744 C 289.600 219.251,289.420 218.736,289.200 218.600 C 288.980 218.464,288.800 217.924,288.800 217.400 C 288.800 216.876,288.620 216.336,288.400 216.200 C 288.180 216.064,288.000 215.549,288.000 215.056 C 288.000 214.563,287.837 213.989,287.639 213.780 C 287.440 213.571,287.211 213.040,287.130 212.600 C 287.049 212.160,286.101 214.500,285.023 217.800 C 283.945 221.100,282.914 223.971,282.732 224.180 C 282.549 224.389,282.400 224.963,282.400 225.456 C 282.400 225.949,282.220 226.464,282.000 226.600 C 281.780 226.736,281.600 227.276,281.600 227.800 C 281.600 228.324,281.420 228.864,281.200 229.000 C 280.980 229.136,280.800 229.676,280.800 230.200 C 280.800 230.724,280.620 231.264,280.400 231.400 C 280.180 231.536,280.000 232.076,280.000 232.600 C 280.000 233.124,279.820 233.664,279.600 233.800 C 279.380 233.936,279.200 234.476,279.200 235.000 C 279.200 235.524,279.020 236.064,278.800 236.200 C 278.580 236.336,278.400 236.799,278.400 237.229 C 278.400 241.012,268.738 246.411,267.000 243.600 C 266.864 243.380,266.428 243.200,266.032 243.200 C 264.469 243.200,260.800 238.873,260.800 237.029 C 260.800 236.489,260.620 235.936,260.400 235.800 C 260.180 235.664,260.000 234.944,260.000 234.200 C 260.000 233.456,259.820 232.736,259.600 232.600 C 259.380 232.464,259.200 231.744,259.200 231.000 C 259.200 230.256,259.020 229.536,258.800 229.400 C 258.580 229.264,258.400 228.544,258.400 227.800 C 258.400 227.056,258.240 226.348,258.044 226.227 C 257.849 226.106,257.592 225.421,257.473 224.704 C 257.355 223.987,257.052 222.590,256.800 221.600 C 256.548 220.610,256.245 219.213,256.127 218.496 C 256.008 217.779,255.751 217.094,255.556 216.973 C 255.360 216.852,255.200 216.144,255.200 215.400 C 255.200 214.656,255.020 213.936,254.800 213.800 C 254.580 213.664,254.400 212.944,254.400 212.200 C 254.400 211.456,254.220 210.736,254.000 210.600 C 253.780 210.464,253.600 209.744,253.600 209.000 C 253.600 208.256,253.420 207.536,253.200 207.400 C 252.980 207.264,252.800 206.722,252.800 206.195 C 252.800 205.669,252.640 204.824,252.445 204.319 C 252.250 203.813,251.873 202.410,251.608 201.200 C 251.343 199.990,250.965 198.460,250.769 197.800 C 250.573 197.140,249.777 193.900,248.999 190.600 C 248.221 187.300,247.228 183.311,246.792 181.735 C 246.357 180.159,246.000 178.414,246.000 177.858 C 246.000 177.302,245.820 176.736,245.600 176.600 C 245.380 176.464,245.200 175.744,245.200 175.000 C 245.200 174.256,245.020 173.536,244.800 173.400 C 244.580 173.264,244.400 172.544,244.400 171.800 C 244.400 171.056,244.220 170.336,244.000 170.200 C 243.780 170.064,243.600 169.254,243.600 168.400 C 243.600 167.546,243.420 166.736,243.200 166.600 C 241.237 165.387,246.141 156.800,248.797 156.800 C 249.213 156.800,249.664 156.620,249.800 156.400 C 250.106 155.906,253.757 155.871,254.705 156.353 " stroke="none" fill="#fcd46c" fill-rule="evenodd"></path><path id="path2" d="M142.067 158.700 L 140.565 160.200 141.982 159.001 C 142.762 158.342,143.571 157.667,143.780 157.501 C 143.989 157.335,144.027 157.200,143.865 157.200 C 143.702 157.200,142.893 157.875,142.067 158.700 M176.480 158.970 C 175.450 159.944,174.695 160.799,174.803 160.870 C 174.912 160.942,175.858 160.145,176.906 159.100 C 179.312 156.703,178.985 156.603,176.480 158.970 M247.000 158.000 C 246.340 158.437,245.980 158.792,246.200 158.788 C 246.601 158.782,248.776 157.223,248.400 157.212 C 248.290 157.208,247.660 157.563,247.000 158.000 M316.600 158.000 C 315.940 158.437,315.580 158.792,315.800 158.788 C 316.201 158.782,318.376 157.223,318.000 157.212 C 317.890 157.208,317.260 157.563,316.600 158.000 M325.800 157.452 C 326.020 157.645,326.920 158.432,327.799 159.201 L 329.398 160.600 328.199 159.266 C 327.540 158.532,326.640 157.745,326.200 157.517 C 325.760 157.289,325.580 157.260,325.800 157.452 M260.644 163.400 C 260.973 164.871,261.202 165.190,261.194 164.167 C 261.191 163.745,261.005 163.130,260.782 162.800 C 260.485 162.362,260.448 162.524,260.644 163.400 M138.800 185.880 C 138.690 198.024,138.737 207.824,138.903 207.657 C 139.070 207.490,139.160 197.554,139.103 185.577 L 139.000 163.800 138.800 185.880 M330.493 165.200 C 330.493 165.970,330.575 166.285,330.676 165.900 C 330.776 165.515,330.776 164.885,330.676 164.500 C 330.575 164.115,330.493 164.430,330.493 165.200 M156.592 200.000 C 156.592 219.690,156.640 227.745,156.700 217.900 C 156.759 208.055,156.759 191.945,156.700 182.100 C 156.640 172.255,156.592 180.310,156.592 200.000 M173.784 181.600 C 173.784 191.170,173.836 195.085,173.900 190.300 C 173.963 185.515,173.963 177.685,173.900 172.900 C 173.836 168.115,173.784 172.030,173.784 181.600 M111.375 171.732 C 111.991 172.539,112.576 173.200,112.675 173.200 C 112.953 173.200,111.221 170.860,110.709 170.544 C 110.459 170.389,110.759 170.924,111.375 171.732 M113.775 174.932 C 114.391 175.739,114.976 176.400,115.075 176.400 C 115.353 176.400,113.621 174.060,113.109 173.744 C 112.859 173.589,113.159 174.124,113.775 174.932 M205.000 174.000 L 191.400 174.216 204.800 174.280 C 212.170 174.315,218.560 174.189,219.000 174.000 C 219.440 173.811,219.530 173.685,219.200 173.720 C 218.870 173.755,212.480 173.881,205.000 174.000 M286.105 174.687 C 286.714 174.779,287.614 174.777,288.105 174.682 C 288.597 174.587,288.100 174.511,287.000 174.514 C 285.900 174.517,285.497 174.595,286.105 174.687 M191.368 182.600 C 191.368 187.000,191.426 188.855,191.498 186.721 C 191.570 184.588,191.570 180.988,191.499 178.721 C 191.427 176.455,191.368 178.200,191.368 182.600 M328.046 175.667 C 328.021 176.034,327.896 176.664,327.770 177.067 C 327.552 177.762,327.563 177.763,327.997 177.087 C 328.248 176.696,328.373 176.066,328.273 175.687 C 328.111 175.068,328.088 175.066,328.046 175.667 M117.375 179.732 C 117.991 180.539,118.576 181.200,118.675 181.200 C 118.953 181.200,117.221 178.860,116.709 178.544 C 116.459 178.389,116.759 178.924,117.375 179.732 M308.649 180.215 C 308.512 180.573,308.415 181.166,308.434 181.533 C 308.453 181.900,308.627 181.669,308.821 181.020 C 309.198 179.758,309.065 179.133,308.649 180.215 M326.446 182.067 C 326.421 182.434,326.296 183.064,326.170 183.467 C 325.952 184.162,325.963 184.163,326.397 183.487 C 326.648 183.096,326.773 182.466,326.673 182.087 C 326.511 181.468,326.488 181.466,326.446 182.067 M247.656 184.000 C 247.656 184.330,247.811 184.960,248.000 185.400 C 248.217 185.904,248.344 185.978,248.344 185.600 C 248.344 185.270,248.189 184.640,248.000 184.200 C 247.783 183.696,247.656 183.622,247.656 184.000 M122.175 186.132 C 122.791 186.939,123.376 187.600,123.475 187.600 C 123.753 187.600,122.021 185.260,121.509 184.944 C 121.259 184.789,121.559 185.324,122.175 186.132 M325.646 185.267 C 325.621 185.634,325.496 186.264,325.370 186.667 C 325.152 187.362,325.163 187.363,325.597 186.687 C 325.848 186.296,325.973 185.666,325.873 185.287 C 325.711 184.668,325.688 184.666,325.646 185.267 M217.700 191.476 C 218.085 191.576,218.715 191.576,219.100 191.476 C 219.485 191.375,219.170 191.293,218.400 191.293 C 217.630 191.293,217.315 191.375,217.700 191.476 M104.491 213.600 C 104.435 225.370,104.296 235.450,104.183 236.000 L 103.977 237.000 104.392 236.056 C 104.666 235.432,104.771 227.827,104.700 213.656 L 104.593 192.200 104.491 213.600 M323.246 194.867 C 323.221 195.234,323.096 195.864,322.970 196.267 C 322.752 196.962,322.763 196.963,323.197 196.287 C 323.448 195.896,323.573 195.266,323.473 194.887 C 323.311 194.268,323.288 194.266,323.246 194.867 M108.391 197.188 C 108.857 197.841,109.442 198.502,109.691 198.656 C 109.941 198.811,109.641 198.276,109.025 197.468 C 107.688 195.715,107.184 195.492,108.391 197.188 M303.474 201.240 C 303.329 201.793,303.074 201.978,302.727 201.782 C 302.296 201.537,302.294 201.583,302.717 202.038 C 303.272 202.635,303.980 202.003,303.994 200.900 C 304.003 200.123,303.717 200.310,303.474 201.240 M173.784 218.400 C 173.784 227.970,173.836 231.885,173.900 227.100 C 173.963 222.315,173.963 214.485,173.900 209.700 C 173.836 204.915,173.784 208.830,173.784 218.400 M191.387 217.700 L 191.400 225.800 204.400 225.809 L 217.400 225.817 204.508 225.703 L 191.617 225.589 191.496 217.594 L 191.375 209.599 191.387 217.700 M124.000 218.000 C 124.470 218.660,124.944 219.200,125.054 219.200 C 125.164 219.200,124.870 218.660,124.400 218.000 C 123.930 217.340,123.456 216.800,123.346 216.800 C 123.236 216.800,123.530 217.340,124.000 218.000 M128.791 224.388 C 129.257 225.041,129.842 225.702,130.091 225.856 C 130.341 226.011,130.041 225.476,129.425 224.668 C 128.088 222.915,127.584 222.692,128.791 224.388 M135.991 233.988 C 136.457 234.641,137.042 235.302,137.291 235.456 C 137.541 235.611,137.241 235.076,136.625 234.268 C 135.288 232.515,134.784 232.292,135.991 233.988 M139.596 238.794 C 140.290 239.671,141.067 240.518,141.323 240.676 C 141.578 240.834,141.093 240.116,140.245 239.081 C 139.397 238.047,138.620 237.200,138.518 237.200 C 138.416 237.200,138.901 237.918,139.596 238.794 M101.200 241.274 C 100.210 242.176,99.760 242.724,100.200 242.492 C 100.952 242.094,103.552 239.581,103.175 239.616 C 103.079 239.625,102.190 240.371,101.200 241.274 M297.801 240.734 C 298.460 241.468,299.360 242.255,299.800 242.483 C 300.240 242.711,300.420 242.740,300.200 242.548 C 299.980 242.355,299.080 241.568,298.201 240.799 L 296.602 239.400 297.801 240.734 M263.487 241.209 C 264.195 241.951,264.842 242.478,264.925 242.379 C 265.008 242.281,264.429 241.673,263.638 241.029 L 262.200 239.858 263.487 241.209 M275.375 241.300 L 274.200 242.600 275.500 241.425 C 276.215 240.779,276.800 240.194,276.800 240.125 C 276.800 239.816,276.470 240.088,275.375 241.300 " stroke="none" fill="#fce0a2" fill-rule="evenodd"></path><path id="path3" d="M94.000 156.800 C 93.297 157.025,93.832 157.120,95.800 157.120 C 97.768 157.120,98.303 157.025,97.600 156.800 C 97.050 156.624,96.240 156.480,95.800 156.480 C 95.360 156.480,94.550 156.624,94.000 156.800 M146.000 156.800 C 145.300 157.024,145.841 157.118,147.800 157.113 C 149.880 157.107,150.291 157.027,149.400 156.800 C 147.856 156.407,147.227 156.407,146.000 156.800 M181.000 156.800 C 180.340 156.968,188.890 157.105,200.000 157.105 C 211.110 157.105,219.660 156.968,219.000 156.800 C 218.340 156.632,209.790 156.495,200.000 156.495 C 190.210 156.495,181.660 156.632,181.000 156.800 M250.600 156.800 C 249.709 157.027,250.120 157.107,252.200 157.113 C 254.159 157.118,254.700 157.024,254.000 156.800 C 252.773 156.407,252.144 156.407,250.600 156.800 M320.000 156.800 C 319.300 157.024,319.841 157.118,321.800 157.113 C 323.880 157.107,324.291 157.027,323.400 156.800 C 321.856 156.407,321.227 156.407,320.000 156.800 M90.662 158.236 C 89.824 158.805,89.230 159.363,89.342 159.476 C 89.455 159.588,89.953 159.302,90.449 158.840 C 90.945 158.378,91.587 158.000,91.875 158.000 C 92.164 158.000,92.400 157.820,92.400 157.600 C 92.400 157.057,92.392 157.060,90.662 158.236 M99.596 157.921 C 101.044 158.908,102.512 160.402,103.605 162.000 C 104.131 162.770,104.669 163.490,104.800 163.600 C 104.931 163.710,105.475 164.430,106.008 165.200 C 106.542 165.970,107.298 166.949,107.689 167.375 C 108.080 167.802,108.400 168.297,108.400 168.475 C 108.400 168.654,108.579 168.800,108.798 168.800 C 109.017 168.800,107.561 166.637,105.562 163.993 C 102.222 159.575,99.876 157.168,98.962 157.221 C 98.763 157.233,99.048 157.548,99.596 157.921 M141.699 159.300 C 139.144 161.940,139.200 161.349,139.200 185.564 C 139.200 197.658,139.065 207.636,138.900 207.737 C 138.735 207.839,135.904 204.340,132.610 199.961 C 129.315 195.582,126.570 192.000,126.510 192.000 C 126.176 192.000,126.492 192.750,127.109 193.425 C 127.500 193.851,130.202 197.395,133.114 201.300 C 136.026 205.205,138.567 208.400,138.761 208.400 C 139.526 208.400,139.600 206.403,139.602 185.667 C 139.605 162.281,139.624 162.062,141.873 159.572 C 143.587 157.675,143.461 157.479,141.699 159.300 M153.340 159.031 C 156.188 161.925,156.000 159.027,156.000 199.935 C 156.000 239.061,156.047 238.047,154.127 240.255 C 152.648 241.956,150.539 242.798,147.688 242.825 C 145.485 242.846,145.180 242.923,145.999 243.249 C 148.843 244.383,153.825 242.041,155.466 238.800 L 156.377 237.000 156.389 200.119 C 156.397 172.108,156.283 162.969,155.916 162.119 C 155.321 160.745,153.727 158.727,152.850 158.236 C 152.493 158.036,152.713 158.394,153.340 159.031 M257.999 159.417 C 258.768 160.288,259.555 161.180,259.748 161.400 C 260.284 162.013,259.284 160.283,258.707 159.600 C 258.428 159.270,257.840 158.738,257.400 158.417 C 256.960 158.097,257.230 158.547,257.999 159.417 M327.647 159.382 C 328.223 160.052,328.893 160.960,329.135 161.400 C 329.377 161.840,329.581 161.968,329.588 161.685 C 329.595 161.401,328.925 160.493,328.100 159.667 C 327.265 158.830,327.064 158.704,327.647 159.382 M314.876 159.893 C 314.049 161.055,312.654 165.074,312.202 167.600 C 312.017 168.636,312.060 168.844,312.370 168.400 C 312.600 168.070,312.791 167.453,312.794 167.028 C 312.806 165.486,314.629 160.629,315.535 159.722 C 315.843 159.414,316.003 159.070,315.891 158.958 C 315.779 158.846,315.322 159.267,314.876 159.893 M88.155 161.012 C 87.790 161.569,87.564 162.098,87.653 162.187 C 87.742 162.276,88.118 161.820,88.489 161.174 C 89.314 159.736,89.069 159.617,88.155 161.012 M244.428 161.545 C 243.838 162.701,243.618 163.835,243.663 165.484 L 243.726 167.800 243.963 165.180 C 244.099 163.675,244.511 162.086,244.932 161.445 C 245.335 160.832,245.572 160.239,245.460 160.127 C 245.348 160.014,244.883 160.653,244.428 161.545 M329.772 165.740 C 329.756 167.681,329.861 168.595,330.032 168.000 C 330.420 166.653,330.458 163.510,330.094 162.940 C 329.932 162.687,329.788 163.947,329.772 165.740 M87.050 164.050 C 86.681 165.895,86.825 235.228,87.200 236.400 C 87.376 236.950,87.538 220.615,87.560 200.100 C 87.582 179.585,87.533 162.800,87.450 162.800 C 87.368 162.800,87.188 163.363,87.050 164.050 M173.922 182.100 C 173.855 192.495,173.894 209.100,174.008 219.000 C 174.171 233.125,174.236 229.055,174.308 200.100 C 174.359 179.805,174.320 163.200,174.222 163.200 C 174.124 163.200,173.989 171.705,173.922 182.100 M225.720 165.200 C 225.720 166.410,225.795 166.905,225.887 166.300 C 225.978 165.695,225.978 164.705,225.887 164.100 C 225.795 163.495,225.720 163.990,225.720 165.200 M260.834 165.400 C 260.822 165.840,260.987 166.470,261.200 166.800 C 261.714 167.595,261.714 166.596,261.200 165.400 L 260.856 164.600 260.834 165.400 M244.046 168.400 C 244.065 168.730,244.224 169.450,244.400 170.000 L 244.720 171.000 244.754 170.000 C 244.773 169.450,244.613 168.730,244.400 168.400 C 244.055 167.867,244.016 167.867,244.046 168.400 M261.634 168.600 C 261.622 169.040,261.787 169.670,262.000 170.000 C 262.514 170.795,262.514 169.796,262.000 168.600 L 261.656 167.800 261.634 168.600 M110.096 170.595 C 110.593 171.362,111.144 171.992,111.320 171.995 C 111.497 171.998,111.160 171.370,110.573 170.600 C 109.200 168.800,108.932 168.797,110.096 170.595 M311.059 171.985 C 310.673 173.583,310.448 174.982,310.559 175.093 C 310.670 175.204,310.869 174.778,311.000 174.147 C 311.132 173.516,311.433 172.346,311.669 171.546 C 311.904 170.747,312.022 169.865,311.929 169.586 C 311.836 169.308,311.444 170.387,311.059 171.985 M329.000 170.400 C 328.848 171.091,328.814 171.747,328.924 171.857 C 329.034 171.967,329.248 171.491,329.400 170.800 C 329.552 170.109,329.586 169.453,329.476 169.343 C 329.366 169.233,329.152 169.709,329.000 170.400 M223.477 170.784 C 221.165 173.379,221.229 173.369,205.500 173.530 C 192.517 173.663,191.201 173.737,191.206 174.338 C 191.210 174.791,191.308 174.850,191.515 174.524 C 191.737 174.175,195.554 174.015,205.841 173.924 L 219.865 173.800 221.790 172.600 C 222.848 171.940,223.981 170.995,224.306 170.500 C 225.134 169.240,224.729 169.379,223.477 170.784 M244.846 171.600 C 244.865 171.930,245.024 172.650,245.200 173.200 L 245.520 174.200 245.554 173.200 C 245.573 172.650,245.413 171.930,245.200 171.600 C 244.855 171.067,244.816 171.067,244.846 171.600 M262.434 171.800 C 262.422 172.240,262.587 172.870,262.800 173.200 C 263.314 173.995,263.314 172.996,262.800 171.800 L 262.456 171.000 262.434 171.800 M112.496 173.795 C 112.993 174.562,113.544 175.192,113.720 175.195 C 113.897 175.198,113.560 174.570,112.973 173.800 C 111.600 172.000,111.332 171.997,112.496 173.795 M328.292 173.042 C 328.131 173.202,328.011 173.798,328.025 174.367 L 328.051 175.400 328.437 174.434 C 328.853 173.394,328.767 172.567,328.292 173.042 M245.838 175.629 C 245.973 176.383,246.408 178.170,246.804 179.600 C 247.200 181.030,247.743 183.190,248.012 184.400 C 248.280 185.610,248.646 187.050,248.825 187.600 C 249.004 188.150,249.268 189.198,249.413 189.929 C 249.558 190.659,249.763 191.171,249.868 191.065 C 250.023 190.910,248.989 186.176,247.759 181.400 C 247.645 180.960,247.214 179.276,246.800 177.657 C 246.004 174.544,245.423 173.320,245.838 175.629 M263.234 175.000 C 263.222 175.440,263.387 176.070,263.600 176.400 C 264.114 177.195,264.114 176.196,263.600 175.000 L 263.256 174.200 263.234 175.000 M285.491 175.089 C 286.201 175.177,287.461 175.179,288.291 175.092 C 289.121 175.005,288.540 174.933,287.000 174.931 C 285.460 174.929,284.781 175.000,285.491 175.089 M281.744 176.341 C 279.572 177.915,276.055 184.988,276.983 185.916 C 277.099 186.032,277.309 185.555,277.449 184.856 C 277.589 184.156,277.860 183.486,278.052 183.368 C 278.243 183.250,278.400 182.724,278.400 182.200 C 278.400 181.676,278.580 181.136,278.800 181.000 C 279.020 180.864,279.200 180.447,279.200 180.072 C 279.200 179.262,282.262 176.000,283.022 176.000 C 283.314 176.000,283.664 175.820,283.800 175.600 C 284.259 174.858,283.330 175.193,281.744 176.341 M290.200 175.600 C 290.336 175.820,290.680 176.000,290.964 176.000 C 291.539 176.000,293.413 177.695,294.517 179.213 C 295.207 180.162,295.207 180.148,294.517 178.843 C 294.123 178.097,293.098 176.972,292.240 176.343 C 290.673 175.195,289.739 174.855,290.200 175.600 M114.252 176.100 C 114.530 176.563,123.500 188.562,125.232 190.787 C 125.654 191.330,126.000 191.639,126.000 191.475 C 126.000 191.123,114.395 175.600,114.132 175.600 C 114.033 175.600,114.088 175.825,114.252 176.100 M310.049 176.000 C 310.016 176.330,309.889 177.050,309.767 177.600 C 309.575 178.464,309.607 178.503,309.999 177.888 C 310.248 177.497,310.375 176.777,310.281 176.288 C 310.186 175.800,310.082 175.670,310.049 176.000 M327.467 176.267 C 327.320 176.413,327.215 176.998,327.234 177.567 C 327.268 178.581,327.275 178.579,327.621 177.420 C 327.985 176.203,327.931 175.802,327.467 176.267 M264.056 178.200 C 264.056 178.640,264.211 179.360,264.400 179.800 L 264.744 180.600 264.744 179.800 C 264.744 179.360,264.589 178.640,264.400 178.200 L 264.056 177.400 264.056 178.200 M309.254 179.267 C 309.225 179.634,309.084 180.264,308.941 180.667 C 308.741 181.233,308.795 181.296,309.175 180.946 C 309.446 180.697,309.587 180.067,309.488 179.546 C 309.390 179.026,309.284 178.900,309.254 179.267 M326.667 179.467 C 326.520 179.613,326.415 180.198,326.434 180.767 C 326.468 181.781,326.475 181.779,326.821 180.620 C 327.185 179.403,327.131 179.002,326.667 179.467 M295.228 181.076 C 295.213 181.558,295.380 182.064,295.600 182.200 C 296.073 182.492,296.073 182.101,295.600 181.000 C 295.269 180.229,295.255 180.231,295.228 181.076 M264.856 181.400 C 264.856 181.840,265.011 182.560,265.200 183.000 L 265.544 183.800 265.544 183.000 C 265.544 182.560,265.389 181.840,265.200 181.400 L 264.856 180.600 264.856 181.400 M308.449 182.400 C 308.416 182.730,308.289 183.450,308.167 184.000 C 307.975 184.864,308.007 184.903,308.399 184.288 C 308.648 183.897,308.775 183.177,308.681 182.688 C 308.586 182.200,308.482 182.070,308.449 182.400 M325.867 182.667 C 325.720 182.813,325.615 183.398,325.634 183.967 C 325.668 184.981,325.675 184.979,326.021 183.820 C 326.385 182.603,326.331 182.202,325.867 182.667 M296.028 183.476 C 296.013 183.958,296.180 184.464,296.400 184.600 C 296.873 184.892,296.873 184.501,296.400 183.400 C 296.069 182.629,296.055 182.631,296.028 183.476 M265.656 184.600 C 265.656 185.040,265.811 185.760,266.000 186.200 L 266.344 187.000 266.344 186.200 C 266.344 185.760,266.189 185.040,266.000 184.600 L 265.656 183.800 265.656 184.600 M296.828 185.876 C 296.813 186.358,296.980 186.864,297.200 187.000 C 297.673 187.292,297.673 186.901,297.200 185.800 C 296.869 185.029,296.855 185.031,296.828 185.876 M307.646 185.867 C 307.621 186.124,307.484 186.664,307.341 187.067 C 307.140 187.636,307.194 187.697,307.579 187.342 C 307.852 187.091,307.989 186.551,307.884 186.142 C 307.779 185.734,307.672 185.610,307.646 185.867 M325.067 185.867 C 324.920 186.013,324.815 186.598,324.834 187.167 C 324.868 188.181,324.875 188.179,325.221 187.020 C 325.585 185.803,325.531 185.402,325.067 185.867 M266.400 187.546 C 266.400 188.438,268.504 196.429,268.691 196.243 C 268.792 196.141,268.390 194.110,267.796 191.729 C 266.764 187.589,266.400 186.499,266.400 187.546 M297.622 187.818 C 297.610 188.048,298.126 189.758,298.770 191.618 C 299.413 193.478,299.948 194.730,299.959 194.400 C 299.981 193.719,297.657 187.173,297.622 187.818 M306.854 188.867 C 306.825 189.234,306.684 189.864,306.541 190.267 C 306.341 190.833,306.395 190.896,306.775 190.546 C 307.046 190.297,307.187 189.667,307.088 189.146 C 306.990 188.626,306.884 188.500,306.854 188.867 M324.200 189.453 C 324.068 190.084,323.767 191.254,323.531 192.054 C 323.296 192.853,323.178 193.735,323.271 194.014 C 323.364 194.292,323.756 193.213,324.141 191.615 C 324.527 190.017,324.752 188.618,324.641 188.507 C 324.530 188.396,324.331 188.822,324.200 189.453 M275.029 190.829 C 274.215 193.569,274.495 193.850,275.371 191.171 C 275.742 190.039,275.957 189.024,275.850 188.916 C 275.742 188.809,275.373 189.669,275.029 190.829 M191.206 190.900 C 191.200 191.554,192.053 191.594,204.300 191.506 L 217.400 191.412 204.620 191.300 C 195.013 191.216,191.762 191.066,191.526 190.694 C 191.305 190.346,191.210 190.407,191.206 190.900 M103.918 214.500 C 103.798 237.774,103.772 238.208,102.400 239.603 C 102.290 239.715,101.751 240.345,101.201 241.003 L 100.203 242.200 101.517 241.010 C 104.329 238.465,104.183 239.821,104.317 214.900 C 104.388 201.500,104.587 192.400,104.807 192.400 C 105.010 192.400,112.395 202.030,121.219 213.800 C 130.042 225.570,137.348 235.200,137.454 235.200 C 137.714 235.200,131.896 227.149,129.071 223.600 C 128.809 223.270,123.507 216.215,117.290 207.922 C 105.799 192.594,105.014 191.600,104.390 191.600 C 104.191 191.600,103.985 201.616,103.918 214.500 M219.400 192.000 C 219.536 192.220,219.989 192.400,220.407 192.400 C 220.825 192.400,221.924 193.120,222.849 194.001 C 224.852 195.906,225.348 195.914,223.495 194.012 C 221.989 192.466,218.684 190.842,219.400 192.000 M250.046 192.400 C 250.027 192.950,250.187 193.670,250.400 194.000 C 250.894 194.764,250.894 193.942,250.400 192.400 L 250.080 191.400 250.046 192.400 M305.829 193.029 C 305.681 193.615,305.651 194.184,305.761 194.294 C 305.871 194.404,306.081 194.015,306.229 193.429 C 306.376 192.842,306.406 192.273,306.296 192.163 C 306.186 192.053,305.976 192.442,305.829 193.029 M273.800 194.400 C 273.650 194.873,273.617 195.350,273.727 195.460 C 273.837 195.570,274.050 195.273,274.200 194.800 C 274.350 194.327,274.383 193.850,274.273 193.740 C 274.163 193.630,273.950 193.927,273.800 194.400 M250.827 195.068 C 250.792 195.669,252.026 200.536,252.279 200.800 C 252.559 201.091,251.989 198.234,251.378 196.278 C 251.090 195.355,250.841 194.810,250.827 195.068 M322.600 195.853 C 322.468 196.484,322.175 197.720,321.947 198.600 C 321.399 200.722,320.964 202.462,320.196 205.600 C 319.846 207.030,318.843 211.065,317.968 214.566 C 317.094 218.068,316.436 221.108,316.507 221.322 C 316.579 221.537,318.127 215.730,319.947 208.418 C 321.768 201.106,323.163 195.030,323.048 194.915 C 322.933 194.800,322.731 195.222,322.600 195.853 M300.155 195.695 C 302.414 202.971,302.508 203.200,303.247 203.200 C 303.763 203.200,303.998 202.917,303.994 202.300 C 303.989 201.580,303.912 201.520,303.611 201.997 C 303.063 202.863,302.633 202.218,301.613 199.000 C 301.125 197.460,300.549 195.930,300.333 195.600 C 300.007 195.103,299.977 195.119,300.155 195.695 M305.029 196.229 C 304.881 196.815,304.851 197.384,304.961 197.494 C 305.071 197.604,305.281 197.215,305.429 196.629 C 305.576 196.042,305.606 195.473,305.496 195.363 C 305.386 195.253,305.176 195.642,305.029 196.229 M273.000 196.800 C 272.850 197.273,272.817 197.750,272.927 197.860 C 273.037 197.970,273.250 197.673,273.400 197.200 C 273.550 196.727,273.583 196.250,273.473 196.140 C 273.363 196.030,273.150 196.327,273.000 196.800 M269.051 198.000 C 269.173 198.770,269.548 200.375,269.884 201.567 L 270.496 203.734 271.239 202.767 C 271.648 202.235,271.979 201.530,271.975 201.200 C 271.971 200.870,271.678 201.136,271.323 201.791 L 270.679 202.983 270.191 201.191 C 269.923 200.206,269.507 198.770,269.266 198.000 L 268.829 196.600 269.051 198.000 M225.720 200.000 C 225.720 201.210,225.795 201.705,225.887 201.100 C 225.978 200.495,225.978 199.505,225.887 198.900 C 225.795 198.295,225.720 198.790,225.720 200.000 M304.222 199.129 C 304.058 199.859,304.022 200.556,304.142 200.676 C 304.443 200.977,304.920 198.956,304.699 198.317 C 304.601 198.033,304.386 198.398,304.222 199.129 M272.200 199.200 C 272.050 199.673,272.017 200.150,272.127 200.260 C 272.237 200.370,272.450 200.073,272.600 199.600 C 272.750 199.127,272.783 198.650,272.673 198.540 C 272.563 198.430,272.350 198.727,272.200 199.200 M252.412 202.200 C 252.412 202.640,252.587 203.270,252.800 203.600 C 253.121 204.097,253.188 204.062,253.188 203.400 C 253.188 202.960,253.013 202.330,252.800 202.000 C 252.479 201.503,252.412 201.538,252.412 202.200 M223.416 205.583 C 222.792 206.234,221.544 207.125,220.641 207.563 C 219.739 208.002,219.284 208.369,219.631 208.380 C 220.486 208.407,223.920 206.096,224.424 205.156 C 224.988 204.101,224.732 204.210,223.416 205.583 M253.256 205.000 C 253.256 205.440,253.411 206.160,253.600 206.600 L 253.944 207.400 253.944 206.600 C 253.944 206.160,253.789 205.440,253.600 205.000 L 253.256 204.200 253.256 205.000 M254.012 208.600 C 254.012 209.040,254.187 209.670,254.400 210.000 C 254.721 210.497,254.788 210.462,254.788 209.800 C 254.788 209.360,254.613 208.730,254.400 208.400 C 254.079 207.903,254.012 207.938,254.012 208.600 M191.206 209.100 C 191.210 209.593,191.305 209.654,191.526 209.305 C 191.763 208.933,195.132 208.784,205.220 208.700 L 218.600 208.589 204.900 208.494 C 192.081 208.406,191.200 208.445,191.206 209.100 M286.469 210.917 C 286.232 211.202,285.562 212.944,284.980 214.789 C 284.397 216.634,283.822 218.426,283.701 218.771 C 283.556 219.188,283.616 219.265,283.878 219.000 C 284.096 218.780,284.598 217.520,284.994 216.200 C 286.099 212.510,286.850 210.783,287.242 211.026 C 287.439 211.148,287.600 211.057,287.600 210.824 C 287.600 210.241,286.988 210.292,286.469 210.917 M254.834 211.600 C 254.846 211.930,255.011 212.560,255.200 213.000 L 255.544 213.800 255.566 213.000 C 255.578 212.560,255.413 211.930,255.200 211.600 C 254.855 211.067,254.815 211.067,254.834 211.600 M287.612 212.000 C 287.612 212.330,287.787 212.870,288.000 213.200 C 288.345 213.733,288.388 213.733,288.388 213.200 C 288.388 212.870,288.213 212.330,288.000 212.000 C 287.655 211.467,287.612 211.467,287.612 212.000 M288.412 214.400 C 288.412 214.730,288.587 215.270,288.800 215.600 C 289.145 216.133,289.188 216.133,289.188 215.600 C 289.188 215.270,289.013 214.730,288.800 214.400 C 288.455 213.867,288.412 213.867,288.412 214.400 M255.634 214.800 C 255.646 215.130,255.811 215.760,256.000 216.200 L 256.344 217.000 256.366 216.200 C 256.378 215.760,256.213 215.130,256.000 214.800 C 255.655 214.267,255.615 214.267,255.634 214.800 M289.234 216.800 C 289.246 217.130,289.411 217.760,289.600 218.200 L 289.944 219.000 289.966 218.200 C 289.978 217.760,289.813 217.130,289.600 216.800 C 289.255 216.267,289.215 216.267,289.234 216.800 M256.446 218.000 C 256.465 218.330,256.624 219.050,256.800 219.600 L 257.120 220.600 257.154 219.600 C 257.173 219.050,257.013 218.330,256.800 218.000 C 256.455 217.467,256.416 217.467,256.446 218.000 M283.029 220.629 C 282.881 221.215,282.838 221.772,282.932 221.866 C 283.027 221.960,283.224 221.558,283.371 220.971 C 283.519 220.385,283.562 219.828,283.468 219.734 C 283.373 219.640,283.176 220.042,283.029 220.629 M257.234 221.200 C 257.246 221.530,257.411 222.160,257.600 222.600 L 257.944 223.400 257.966 222.600 C 257.978 222.160,257.813 221.530,257.600 221.200 C 257.255 220.667,257.215 220.667,257.234 221.200 M290.812 221.600 C 290.812 221.930,290.987 222.470,291.200 222.800 C 291.545 223.333,291.588 223.333,291.588 222.800 C 291.588 222.470,291.413 221.930,291.200 221.600 C 290.855 221.067,290.812 221.067,290.812 221.600 M315.800 223.200 C 315.648 223.891,315.614 224.547,315.724 224.657 C 315.834 224.767,316.048 224.291,316.200 223.600 C 316.352 222.909,316.386 222.253,316.276 222.143 C 316.166 222.033,315.952 222.509,315.800 223.200 M258.046 224.400 C 258.065 224.730,258.224 225.450,258.400 226.000 L 258.720 227.000 258.754 226.000 C 258.773 225.450,258.613 224.730,258.400 224.400 C 258.055 223.867,258.016 223.867,258.046 224.400 M291.628 224.276 C 291.718 225.315,292.344 226.196,292.372 225.324 C 292.387 224.842,292.220 224.336,292.000 224.200 C 291.780 224.064,291.613 224.098,291.628 224.276 M315.000 226.400 C 314.848 227.091,314.814 227.747,314.924 227.857 C 315.034 227.967,315.248 227.491,315.400 226.800 C 315.552 226.109,315.586 225.453,315.476 225.343 C 315.366 225.233,315.152 225.709,315.000 226.400 M191.333 226.200 C 191.418 226.454,196.696 226.638,205.805 226.705 C 213.691 226.763,220.007 226.673,219.839 226.505 C 219.362 226.027,191.174 225.725,191.333 226.200 M292.428 226.676 C 292.518 227.715,293.144 228.596,293.172 227.724 C 293.187 227.242,293.020 226.736,292.800 226.600 C 292.580 226.464,292.413 226.498,292.428 226.676 M220.600 227.200 C 220.736 227.420,221.089 227.600,221.384 227.600 C 221.679 227.600,222.597 228.275,223.425 229.100 C 224.389 230.061,224.759 230.280,224.455 229.708 C 224.194 229.217,223.313 228.362,222.497 227.808 C 220.957 226.761,220.174 226.510,220.600 227.200 M258.846 227.600 C 258.865 227.930,259.024 228.650,259.200 229.200 L 259.520 230.200 259.554 229.200 C 259.573 228.650,259.413 227.930,259.200 227.600 C 258.855 227.067,258.816 227.067,258.846 227.600 M314.200 229.600 C 314.048 230.291,314.014 230.947,314.124 231.057 C 314.234 231.167,314.448 230.691,314.600 230.000 C 314.752 229.309,314.786 228.653,314.676 228.543 C 314.566 228.433,314.352 228.909,314.200 229.600 M293.570 229.827 C 295.940 237.634,298.500 242.833,299.488 241.845 C 299.585 241.748,299.152 241.158,298.525 240.534 C 297.104 239.121,296.753 238.380,295.142 233.400 C 293.998 229.865,292.654 226.810,293.570 229.827 M279.867 229.867 C 279.720 230.013,279.611 230.508,279.625 230.967 C 279.649 231.733,279.682 231.723,280.034 230.842 C 280.426 229.863,280.344 229.389,279.867 229.867 M259.646 230.800 C 259.665 231.130,259.824 231.850,260.000 232.400 L 260.320 233.400 260.354 232.400 C 260.373 231.850,260.213 231.130,260.000 230.800 C 259.655 230.267,259.616 230.267,259.646 230.800 M313.473 232.553 C 313.323 232.945,313.211 233.566,313.225 233.933 C 313.242 234.375,313.381 234.274,313.637 233.634 C 313.849 233.103,313.961 232.482,313.885 232.254 C 313.809 232.027,313.624 232.161,313.473 232.553 M225.720 234.800 C 225.720 236.010,225.795 236.505,225.887 235.900 C 225.978 235.295,225.978 234.305,225.887 233.700 C 225.795 233.095,225.720 233.590,225.720 234.800 M260.446 234.000 C 260.465 234.330,260.624 235.050,260.800 235.600 L 261.120 236.600 261.154 235.600 C 261.173 235.050,261.013 234.330,260.800 234.000 C 260.455 233.467,260.416 233.467,260.446 234.000 M278.267 234.667 C 278.120 234.813,278.011 235.308,278.025 235.767 C 278.049 236.533,278.082 236.523,278.434 235.642 C 278.826 234.663,278.744 234.189,278.267 234.667 M312.688 235.333 C 312.210 236.549,312.324 237.573,312.839 236.687 C 313.067 236.296,313.191 235.666,313.115 235.287 C 312.988 234.660,312.951 234.664,312.688 235.333 M138.391 236.788 C 139.628 238.524,140.225 238.734,139.132 237.048 C 138.619 236.257,138.053 235.608,137.873 235.605 C 137.693 235.602,137.926 236.135,138.391 236.788 M261.410 237.650 C 261.768 238.802,262.818 240.333,263.957 241.362 C 265.285 242.562,264.941 241.862,263.400 240.227 C 262.630 239.411,262.000 238.406,262.000 237.995 C 262.000 237.584,261.801 237.124,261.557 236.974 C 261.253 236.785,261.207 236.997,261.410 237.650 M87.601 237.720 C 87.601 237.896,87.853 238.526,88.162 239.120 C 88.762 240.273,90.800 242.356,90.800 241.817 C 90.800 241.639,90.465 241.203,90.055 240.847 C 89.645 240.491,88.925 239.570,88.456 238.800 C 87.987 238.030,87.602 237.544,87.601 237.720 M141.014 240.100 C 142.242 241.570,144.313 243.020,144.672 242.661 C 144.804 242.530,144.470 242.255,143.931 242.050 C 143.392 241.845,142.382 241.030,141.687 240.239 C 140.114 238.446,139.534 238.327,141.014 240.100 M276.206 239.888 L 275.504 241.000 276.430 240.111 C 276.939 239.622,277.255 239.122,277.132 238.999 C 277.009 238.876,276.592 239.276,276.206 239.888 M175.976 240.226 C 176.883 241.512,179.094 243.040,179.483 242.650 C 179.608 242.525,179.257 242.250,178.701 242.039 C 178.146 241.827,177.111 241.057,176.401 240.327 L 175.111 239.000 175.976 240.226 M223.448 240.417 C 222.852 241.086,221.897 241.811,221.327 242.028 C 220.756 242.245,220.395 242.528,220.523 242.657 C 220.890 243.023,223.445 241.296,224.168 240.193 C 225.045 238.854,224.762 238.942,223.448 240.417 M310.074 240.682 C 309.564 241.231,309.217 241.750,309.303 241.836 C 309.388 241.922,309.974 241.454,310.604 240.796 C 311.234 240.138,311.581 239.619,311.375 239.642 C 311.169 239.665,310.583 240.134,310.074 240.682 M273.717 242.011 C 272.854 242.518,271.480 242.803,269.517 242.882 C 266.634 242.999,266.621 243.004,268.428 243.335 C 270.561 243.725,273.062 243.175,274.462 242.008 C 275.632 241.033,275.379 241.034,273.717 242.011 M94.100 243.281 C 95.096 243.546,96.104 243.546,97.100 243.281 C 98.465 242.919,98.329 242.883,95.600 242.883 C 92.871 242.883,92.735 242.919,94.100 243.281 M180.800 243.200 C 181.350 243.376,189.990 243.520,200.000 243.520 C 210.010 243.520,218.650 243.376,219.200 243.200 C 219.750 243.024,211.110 242.880,200.000 242.880 C 188.890 242.880,180.250 243.024,180.800 243.200 M302.900 243.281 C 303.896 243.546,304.904 243.546,305.900 243.281 C 307.265 242.919,307.129 242.883,304.400 242.883 C 301.671 242.883,301.535 242.919,302.900 243.281 " stroke="none" fill="#fcebc6" fill-rule="evenodd"></path><path id="path4" d="M93.338 156.306 C 93.084 156.468,94.102 156.600,95.600 156.600 C 97.098 156.600,98.240 156.465,98.138 156.300 C 97.900 155.914,93.946 155.919,93.338 156.306 M145.462 156.300 C 145.360 156.465,146.412 156.600,147.800 156.600 C 149.188 156.600,150.240 156.465,150.138 156.300 C 150.036 156.135,148.984 156.000,147.800 156.000 C 146.616 156.000,145.564 156.135,145.462 156.300 M180.262 156.300 C 180.160 156.465,189.042 156.600,200.000 156.600 C 210.958 156.600,219.840 156.465,219.738 156.300 C 219.636 156.135,210.754 156.000,200.000 156.000 C 189.246 156.000,180.364 156.135,180.262 156.300 M249.862 156.300 C 249.760 156.465,250.812 156.600,252.200 156.600 C 253.588 156.600,254.640 156.465,254.538 156.300 C 254.436 156.135,253.384 156.000,252.200 156.000 C 251.016 156.000,249.964 156.135,249.862 156.300 M319.462 156.300 C 319.360 156.465,320.412 156.600,321.800 156.600 C 323.188 156.600,324.240 156.465,324.138 156.300 C 324.036 156.135,322.984 156.000,321.800 156.000 C 320.616 156.000,319.564 156.135,319.462 156.300 M100.488 157.801 C 101.299 158.352,102.145 159.117,102.369 159.501 C 102.593 159.886,102.781 159.988,102.788 159.729 C 102.801 159.200,100.039 156.800,99.416 156.800 C 99.195 156.800,99.678 157.251,100.488 157.801 M142.000 158.113 C 141.670 158.381,141.137 158.960,140.815 159.400 C 140.494 159.840,140.809 159.671,141.515 159.025 C 142.667 157.972,143.000 157.575,142.700 157.613 C 142.645 157.620,142.330 157.845,142.000 158.113 M223.600 159.000 C 224.346 159.770,225.047 160.400,225.157 160.400 C 225.267 160.400,224.746 159.770,224.000 159.000 C 223.254 158.230,222.553 157.600,222.443 157.600 C 222.333 157.600,222.854 158.230,223.600 159.000 M258.171 158.711 C 258.815 159.415,259.421 159.912,259.518 159.815 C 259.711 159.622,259.053 158.934,257.798 158.015 C 257.359 157.694,257.527 158.007,258.171 158.711 M326.800 157.722 C 326.800 157.792,327.363 158.379,328.050 159.025 C 328.925 159.848,329.147 159.948,328.791 159.359 C 328.351 158.633,326.800 157.357,326.800 157.722 M86.643 163.033 C 86.293 163.945,86.355 236.510,86.706 237.062 C 86.868 237.316,87.000 220.621,87.000 199.962 C 87.000 179.303,86.974 162.400,86.943 162.400 C 86.911 162.400,86.776 162.685,86.643 163.033 M156.600 200.000 C 156.600 220.198,156.732 236.516,156.894 236.262 C 157.056 236.008,157.188 219.690,157.188 200.000 C 157.188 180.310,157.056 163.992,156.894 163.738 C 156.732 163.484,156.600 179.802,156.600 200.000 M173.443 163.833 C 173.093 164.745,173.155 235.710,173.506 236.262 C 173.668 236.516,173.800 220.181,173.800 199.962 C 173.800 179.743,173.774 163.200,173.743 163.200 C 173.711 163.200,173.576 163.485,173.443 163.833 M226.154 165.200 C 226.154 166.336,226.291 166.983,226.471 166.699 C 226.645 166.425,226.788 165.750,226.788 165.200 C 226.788 164.650,226.645 163.975,226.471 163.701 C 226.291 163.417,226.154 164.064,226.154 165.200 M243.043 163.833 C 242.705 164.713,242.739 166.315,243.100 166.538 C 243.265 166.640,243.417 165.931,243.438 164.962 C 243.480 163.050,243.415 162.864,243.043 163.833 M106.340 164.716 C 106.833 165.409,107.444 166.104,107.697 166.260 C 107.950 166.417,107.754 165.977,107.260 165.284 C 106.767 164.591,106.156 163.896,105.903 163.740 C 105.650 163.583,105.846 164.023,106.340 164.716 M330.352 167.513 C 330.221 168.307,330.279 168.681,330.501 168.459 C 330.703 168.257,330.801 167.667,330.719 167.146 C 330.593 166.345,330.537 166.402,330.352 167.513 M329.646 170.267 C 329.621 170.524,329.484 171.064,329.341 171.467 C 329.140 172.036,329.194 172.097,329.579 171.742 C 329.852 171.491,329.989 170.951,329.884 170.542 C 329.779 170.134,329.672 170.010,329.646 170.267 M263.044 171.800 C 263.373 173.271,263.602 173.590,263.594 172.567 C 263.591 172.145,263.405 171.530,263.182 171.200 C 262.885 170.762,262.848 170.924,263.044 171.800 M263.844 175.000 C 264.173 176.471,264.402 176.790,264.394 175.767 C 264.391 175.345,264.205 174.730,263.982 174.400 C 263.685 173.962,263.648 174.124,263.844 175.000 M284.662 174.300 C 284.560 174.465,285.612 174.600,287.000 174.600 C 288.388 174.600,289.440 174.465,289.338 174.300 C 289.236 174.135,288.184 174.000,287.000 174.000 C 285.816 174.000,284.764 174.135,284.662 174.300 M116.227 177.800 C 117.600 179.600,117.868 179.603,116.704 177.805 C 116.207 177.038,115.656 176.408,115.480 176.405 C 115.303 176.402,115.640 177.030,116.227 177.800 M264.644 178.200 C 264.973 179.671,265.202 179.990,265.194 178.967 C 265.191 178.545,265.005 177.930,264.782 177.600 C 264.485 177.162,264.448 177.324,264.644 178.200 M246.034 178.800 C 246.046 179.130,246.211 179.760,246.400 180.200 L 246.744 181.000 246.766 180.200 C 246.778 179.760,246.613 179.130,246.400 178.800 C 246.055 178.267,246.015 178.267,246.034 178.800 M327.246 179.867 C 327.221 180.124,327.084 180.664,326.941 181.067 C 326.740 181.636,326.794 181.697,327.179 181.342 C 327.452 181.091,327.589 180.551,327.484 180.142 C 327.379 179.734,327.272 179.610,327.246 179.867 M265.444 181.400 C 265.773 182.871,266.002 183.190,265.994 182.167 C 265.991 181.745,265.805 181.130,265.582 180.800 C 265.285 180.362,265.248 180.524,265.444 181.400 M266.240 184.666 C 266.608 186.199,266.800 186.344,266.800 185.090 C 266.800 184.517,266.613 183.932,266.384 183.790 C 266.111 183.621,266.062 183.923,266.240 184.666 M307.067 185.467 C 306.920 185.613,306.811 186.108,306.825 186.567 C 306.849 187.333,306.882 187.323,307.234 186.442 C 307.626 185.463,307.544 184.989,307.067 185.467 M267.003 187.801 C 267.151 188.460,267.420 189.540,267.600 190.200 C 267.780 190.860,268.043 191.916,268.184 192.547 C 268.324 193.178,268.514 193.620,268.605 193.528 C 268.815 193.318,267.336 187.202,266.991 186.858 C 266.850 186.717,266.856 187.141,267.003 187.801 M248.658 189.200 C 248.975 190.925,249.202 191.251,249.194 189.967 C 249.191 189.435,249.011 188.730,248.794 188.400 C 248.518 187.978,248.477 188.215,248.658 189.200 M306.267 188.667 C 306.120 188.813,306.011 189.308,306.025 189.767 C 306.049 190.533,306.082 190.523,306.434 189.642 C 306.826 188.663,306.744 188.189,306.267 188.667 M197.900 191.099 C 201.475 191.166,207.325 191.166,210.900 191.099 C 214.475 191.033,211.550 190.979,204.400 190.979 C 197.250 190.979,194.325 191.033,197.900 191.099 M249.458 192.400 C 249.775 194.125,250.002 194.451,249.994 193.167 C 249.991 192.635,249.811 191.930,249.594 191.600 C 249.318 191.178,249.277 191.415,249.458 192.400 M305.467 191.867 C 305.320 192.013,305.211 192.508,305.225 192.967 C 305.249 193.733,305.282 193.723,305.634 192.842 C 306.026 191.863,305.944 191.389,305.467 191.867 M221.820 192.301 C 222.029 192.467,222.912 193.232,223.783 194.001 C 224.653 194.770,225.103 195.040,224.783 194.600 C 223.976 193.491,222.278 192.001,221.820 192.000 C 221.580 192.000,221.580 192.111,221.820 192.301 M299.789 192.800 C 300.518 195.329,301.762 198.772,301.898 198.636 C 302.071 198.462,300.052 192.311,299.721 192.004 C 299.600 191.892,299.630 192.250,299.789 192.800 M104.800 192.583 C 104.800 192.743,105.160 193.331,105.600 193.891 C 106.040 194.450,106.400 194.777,106.400 194.617 C 106.400 194.457,106.040 193.869,105.600 193.309 C 105.160 192.750,104.800 192.423,104.800 192.583 M268.868 195.000 C 268.862 195.440,269.011 196.160,269.200 196.600 C 269.638 197.619,269.638 196.568,269.200 195.200 C 268.943 194.396,268.877 194.357,268.868 195.000 M304.667 195.067 C 304.520 195.213,304.411 195.708,304.425 196.167 C 304.449 196.933,304.482 196.923,304.834 196.042 C 305.226 195.063,305.144 194.589,304.667 195.067 M250.582 196.600 C 250.836 198.508,251.660 201.673,251.852 201.481 C 252.022 201.311,251.530 199.060,250.785 196.600 L 250.422 195.400 250.582 196.600 M131.775 198.532 C 132.391 199.339,132.976 200.000,133.075 200.000 C 133.353 200.000,131.621 197.660,131.109 197.344 C 130.859 197.189,131.159 197.724,131.775 198.532 M269.606 198.233 C 269.609 198.655,269.795 199.270,270.018 199.600 C 270.315 200.038,270.352 199.876,270.156 199.000 C 269.827 197.529,269.598 197.210,269.606 198.233 M226.154 200.000 C 226.154 201.136,226.291 201.783,226.471 201.499 C 226.645 201.225,226.788 200.550,226.788 200.000 C 226.788 199.450,226.645 198.775,226.471 198.501 C 226.291 198.217,226.154 198.864,226.154 200.000 M303.754 198.577 C 303.632 198.894,303.603 199.479,303.689 199.877 C 303.787 200.328,303.924 200.112,304.054 199.300 C 304.271 197.938,304.130 197.596,303.754 198.577 M302.272 200.200 C 302.625 201.974,303.600 202.642,303.600 201.110 C 303.600 200.866,303.476 200.791,303.324 200.943 C 303.172 201.095,302.819 200.720,302.540 200.109 L 302.033 199.000 302.272 200.200 M134.175 201.732 C 134.791 202.539,135.376 203.200,135.475 203.200 C 135.753 203.200,134.021 200.860,133.509 200.544 C 133.259 200.389,133.559 200.924,134.175 201.732 M270.413 201.567 C 270.425 202.562,270.447 202.571,271.013 201.824 C 271.757 200.840,271.754 200.533,271.000 200.533 C 270.618 200.533,270.405 200.909,270.413 201.567 M252.006 202.833 C 252.009 203.365,252.189 204.070,252.406 204.400 C 252.682 204.822,252.723 204.585,252.542 203.600 C 252.225 201.875,251.998 201.549,252.006 202.833 M321.429 203.029 C 321.281 203.615,321.238 204.172,321.332 204.266 C 321.427 204.360,321.624 203.958,321.771 203.371 C 321.919 202.785,321.962 202.228,321.868 202.134 C 321.773 202.040,321.576 202.442,321.429 203.029 M113.602 204.233 C 113.603 204.435,114.068 205.140,114.635 205.800 L 115.666 207.000 114.763 205.600 C 113.604 203.804,113.600 203.799,113.602 204.233 M252.800 206.110 C 252.800 206.683,252.987 207.268,253.216 207.410 C 253.489 207.579,253.538 207.277,253.360 206.534 C 252.992 205.001,252.800 204.856,252.800 206.110 M320.222 208.022 C 319.842 209.586,319.607 210.941,319.700 211.033 C 319.793 211.126,320.178 209.921,320.556 208.356 C 320.933 206.790,321.168 205.435,321.078 205.344 C 320.987 205.254,320.602 206.459,320.222 208.022 M116.002 207.433 C 116.003 207.635,116.468 208.340,117.035 209.000 L 118.066 210.200 117.163 208.800 C 116.004 207.004,116.000 206.999,116.002 207.433 M253.600 209.310 C 253.600 209.883,253.787 210.468,254.016 210.610 C 254.289 210.779,254.338 210.477,254.160 209.734 C 253.792 208.201,253.600 208.056,253.600 209.310 M198.125 209.099 C 201.824 209.166,207.764 209.165,211.325 209.099 C 214.886 209.033,211.860 208.979,204.600 208.979 C 197.340 208.979,194.426 209.033,198.125 209.099 M118.400 210.648 C 118.400 210.858,118.953 211.653,119.629 212.415 L 120.858 213.800 119.745 212.200 C 119.133 211.320,118.580 210.525,118.516 210.433 C 118.452 210.342,118.400 210.438,118.400 210.648 M286.490 212.263 C 286.250 212.889,285.951 213.850,285.825 214.400 C 285.577 215.481,285.746 215.178,286.773 212.700 L 287.146 211.800 287.173 212.676 C 287.188 213.158,287.399 213.676,287.643 213.826 C 287.947 214.014,287.994 213.802,287.794 213.150 C 287.212 211.251,286.948 211.072,286.490 212.263 M254.428 212.676 C 254.413 213.158,254.580 213.664,254.800 213.800 C 255.273 214.092,255.273 213.701,254.800 212.600 C 254.469 211.829,254.455 211.831,254.428 212.676 M121.696 215.395 C 122.193 216.162,122.744 216.792,122.920 216.795 C 123.097 216.798,122.760 216.170,122.173 215.400 C 120.800 213.600,120.532 213.597,121.696 215.395 M255.228 215.876 C 255.213 216.358,255.380 216.864,255.600 217.000 C 256.073 217.292,256.073 216.901,255.600 215.800 C 255.269 215.029,255.255 215.031,255.228 215.876 M318.054 216.667 C 318.025 217.144,317.896 217.864,317.770 218.267 C 317.552 218.961,317.564 218.962,317.996 218.288 C 318.247 217.897,318.375 217.177,318.281 216.688 C 318.109 215.801,318.109 215.801,318.054 216.667 M256.006 218.633 C 256.009 219.055,256.195 219.670,256.418 220.000 C 256.715 220.438,256.752 220.276,256.556 219.400 C 256.227 217.929,255.998 217.610,256.006 218.633 M283.857 220.057 C 283.490 221.193,283.259 222.192,283.344 222.277 C 283.428 222.362,283.801 221.504,284.171 220.371 C 284.542 219.239,284.773 218.240,284.685 218.151 C 284.597 218.063,284.224 218.921,283.857 220.057 M317.254 219.867 C 317.225 220.344,317.096 221.064,316.970 221.467 C 316.752 222.161,316.764 222.162,317.196 221.488 C 317.447 221.097,317.575 220.377,317.481 219.888 C 317.309 219.001,317.309 219.001,317.254 219.867 M316.446 223.267 C 316.421 223.634,316.296 224.264,316.170 224.667 C 315.952 225.362,315.963 225.363,316.397 224.687 C 316.648 224.296,316.773 223.666,316.673 223.287 C 316.511 222.668,316.488 222.666,316.446 223.267 M217.233 225.743 C 217.676 226.122,220.017 226.351,219.796 225.994 C 219.662 225.777,218.993 225.600,218.310 225.600 C 217.626 225.600,217.142 225.664,217.233 225.743 M315.646 226.467 C 315.621 226.834,315.496 227.464,315.370 227.867 C 315.152 228.562,315.163 228.563,315.597 227.887 C 315.848 227.496,315.973 226.866,315.873 226.487 C 315.711 225.868,315.688 225.866,315.646 226.467 M132.134 229.300 C 132.669 230.015,134.299 232.189,135.754 234.131 C 137.209 236.073,138.400 237.539,138.400 237.389 C 138.400 237.039,131.619 228.000,131.356 228.000 C 131.248 228.000,131.598 228.585,132.134 229.300 M314.846 229.667 C 314.821 230.034,314.696 230.664,314.570 231.067 C 314.352 231.762,314.363 231.763,314.797 231.087 C 315.048 230.696,315.173 230.066,315.073 229.687 C 314.911 229.068,314.888 229.066,314.846 229.667 M226.154 234.800 C 226.154 235.936,226.291 236.583,226.471 236.299 C 226.645 236.025,226.788 235.350,226.788 234.800 C 226.788 234.250,226.645 233.575,226.471 233.301 C 226.291 233.017,226.154 233.664,226.154 234.800 M104.229 236.629 C 104.081 237.215,104.038 237.772,104.132 237.866 C 104.227 237.960,104.424 237.558,104.571 236.971 C 104.719 236.385,104.762 235.828,104.668 235.734 C 104.573 235.640,104.376 236.042,104.229 236.629 M313.246 235.867 C 313.221 236.124,313.084 236.664,312.941 237.067 C 312.740 237.636,312.794 237.697,313.179 237.342 C 313.452 237.091,313.589 236.551,313.484 236.142 C 313.379 235.734,313.272 235.610,313.246 235.867 M140.012 239.798 C 140.950 241.072,141.600 241.686,141.600 241.298 C 141.600 241.101,141.110 240.503,140.512 239.970 C 139.714 239.258,139.581 239.213,140.012 239.798 M88.000 239.938 C 88.000 240.124,88.388 240.619,88.862 241.038 L 89.724 241.800 89.016 240.700 C 88.286 239.566,88.000 239.351,88.000 239.938 M310.489 241.058 C 309.767 241.796,309.329 242.400,309.514 242.400 C 309.937 242.400,312.202 240.060,311.971 239.862 C 311.877 239.782,311.210 240.320,310.489 241.058 M296.800 240.125 C 296.800 240.194,297.385 240.779,298.100 241.425 L 299.400 242.600 298.225 241.300 C 297.130 240.088,296.800 239.816,296.800 240.125 M93.338 243.694 C 93.946 244.081,97.900 244.086,98.138 243.700 C 98.240 243.535,97.098 243.400,95.600 243.400 C 94.102 243.400,93.084 243.532,93.338 243.694 M145.463 243.700 C 145.700 244.086,149.654 244.081,150.263 243.694 C 150.518 243.532,149.500 243.400,148.002 243.400 C 146.505 243.400,145.362 243.535,145.463 243.700 M180.262 243.700 C 180.504 244.092,219.496 244.092,219.738 243.700 C 219.840 243.535,210.958 243.400,200.000 243.400 C 189.042 243.400,180.160 243.535,180.262 243.700 M267.062 243.700 C 267.300 244.086,271.654 244.081,272.262 243.694 C 272.516 243.532,271.408 243.400,269.800 243.400 C 268.192 243.400,266.960 243.535,267.062 243.700 M301.862 243.700 C 301.964 243.865,303.106 244.000,304.400 244.000 C 305.694 244.000,306.836 243.865,306.938 243.700 C 307.040 243.535,305.898 243.400,304.400 243.400 C 302.902 243.400,301.760 243.535,301.862 243.700 " stroke="none" fill="#fcdc88" fill-rule="evenodd"></path></g></svg>