<?xml version="1.0" standalone="no"?>
<!DOCTYPE svg PUBLIC "-//W3C//DTD SVG 20010904//EN"
 "http://www.w3.org/TR/2001/REC-SVG-20010904/DTD/svg10.dtd">
<svg version="1.0" xmlns="http://www.w3.org/2000/svg"
 width="70.000000pt" height="70.000000pt" viewBox="0 0 70.000000 70.000000"
 preserveAspectRatio="xMidYMid meet">
<metadata>
Created by potrace 1.11, written by Peter Selinger 2001-2013
</metadata>
<g transform="translate(0.000000,70.000000) scale(0.100000,-0.100000)"
fill="#000000" stroke="none">
<path d="M170 360 l0 -270 64 0 64 0 0 68 c0 37 0 75 1 85 1 15 13 17 106 17
l106 0 -3 62 -3 63 -95 1 c-52 1 -99 2 -105 3 -9 1 -10 22 -6 97 1 19 7 20
104 19 56 0 108 1 115 3 8 3 12 25 12 63 l0 59 -180 0 -180 0 0 -270z"/>
</g>
</svg>
